<svg width="56" height="56" viewBox="0 0 56 56" fill="none" xmlns="http://www.w3.org/2000/svg">
<g clip-path="url(#clip0_775_5359)">
<path d="M44.3301 14.001C44.3301 15.289 43.2847 16.3344 41.9967 16.3344H13.9967C12.7087 16.3344 11.6634 15.289 11.6634 14.001C11.6634 12.713 12.7087 11.6677 13.9967 11.6677H14.0504C14.6081 5.51935 19.5174 0.610021 25.6634 0.0546875V7.00102C25.6634 8.28902 26.7087 9.33435 27.9967 9.33435C29.2847 9.33435 30.3301 8.28902 30.3301 7.00102V0.0546875C36.4761 0.612354 41.3854 5.52169 41.9431 11.6677H41.9967C43.2847 11.6677 44.3301 12.713 44.3301 14.001ZM14.0014 21.3417C14.1834 28.904 20.3901 35.001 27.9967 35.001C35.6034 35.001 41.8101 28.904 41.9921 21.3417L41.9967 21.001H13.9967L14.0014 21.3417ZM48.9781 53.3783C48.0097 44.8733 38.9984 37.3344 27.9967 37.3344C16.9951 37.3344 7.98372 44.8733 7.01539 53.3783C6.94072 54.0434 7.13906 54.7107 7.58239 55.2124C8.02339 55.714 8.66272 56.001 9.33239 56.001H46.6657C47.3354 56.001 47.9724 55.714 48.4157 55.2124C48.8591 54.7107 49.0574 54.0434 48.9827 53.3783H48.9781Z" fill="black"/>
</g>
<defs>
<clipPath id="clip0_775_5359">
<rect width="56" height="56" fill="white"/>
</clipPath>
</defs>
</svg>
