<svg width="56" height="56" viewBox="0 0 56 56" fill="none" xmlns="http://www.w3.org/2000/svg">
<g clip-path="url(#clip0_775_5361)">
<path d="M28 4.949C28 2.21433 25.7833 0 23.051 0H4.949C2.21667 0 0 2.21667 0 4.949C0 6.26267 0.520333 7.52033 1.449 8.449L7 14H21L26.551 8.449C27.4797 7.52033 28 6.26267 28 4.949ZM14.504 18.6667L7 25.5593V18.6667H14.504ZM21 42.3267V45.136C21 48.23 19.7703 51.1957 17.584 53.3843L15.6497 55.3187C15.1947 55.7737 14.5973 56.0023 14 56.0023C13.4027 56.0023 12.8053 55.7737 12.3503 55.3187L10.416 53.3843C10.1803 53.1487 10.0007 52.871 9.78833 52.619L21 42.329V42.3267ZM7 43.834L21 30.9727V36.4583L7.62767 48.7433C7.24967 47.5837 7 46.3797 7 45.136V43.834ZM7 31.899L21 19.0377V24.6377L7 37.499V31.899Z" fill="black"/>
<path d="M54.7829 39.6654L51.4159 33.832C50.1676 31.6737 47.8459 30.332 45.3539 30.332H38.6176C36.1256 30.332 33.8039 31.6737 32.5532 33.832L29.1862 39.6654C27.9379 41.826 27.9379 44.507 29.1862 46.6654L32.5532 52.4987C33.8016 54.657 36.1232 55.9987 38.6176 55.9987H45.3539C47.8436 55.9987 50.1653 54.657 51.4159 52.4987L54.7829 46.6654C56.0289 44.5047 56.0289 41.8237 54.7829 39.6654ZM42.0032 47.832C39.4249 47.832 37.3366 45.7437 37.3366 43.1654C37.3366 40.587 39.4249 38.4987 42.0032 38.4987C44.5816 38.4987 46.6699 40.587 46.6699 43.1654C46.6699 45.7437 44.5816 47.832 42.0032 47.832Z" fill="black"/>
</g>
<defs>
<clipPath id="clip0_775_5361">
<rect width="56" height="56" fill="white"/>
</clipPath>
</defs>
</svg>
