<svg width="56" height="56" viewBox="0 0 56 56" fill="none" xmlns="http://www.w3.org/2000/svg">
<path d="M41.9379 30.3903C39.3269 27.7863 35.3742 27.3149 32.2778 28.9739L21.0032 17.6993V10.4986C21.0032 8.13493 19.7315 5.9346 17.6852 4.75393L10.7295 0.742933C8.55718 -0.5124 5.80151 -0.146067 4.02351 1.62727L1.63185 4.0236C-0.143819 5.7946 -0.505486 8.5526 0.747514 10.7249L4.75851 17.6806C5.93918 19.7293 8.14185 21.0009 10.5032 21.0009H17.7038L28.9645 32.2616C28.3158 33.4469 27.9705 34.7793 27.9705 36.1676C27.9705 38.3516 28.8222 40.4003 30.3692 41.9449L42.0685 53.6116C43.6039 55.1423 45.6945 56.0009 47.8552 56.0009C50.1535 56.0009 52.7272 54.7853 54.1972 52.9933C56.8245 49.7919 56.4745 44.8849 53.4015 41.8236L41.9379 30.3903ZM8.79985 15.3519L4.78885 8.39393C4.58818 8.0486 4.64651 7.6076 4.93118 7.32293L7.32285 4.92893C7.60751 4.6466 8.04851 4.58593 8.39618 4.7866L15.3495 8.79993C15.9562 9.14993 16.3342 9.80327 16.3342 10.5009V16.3343H10.5008C9.80085 16.3343 9.14985 15.9586 8.79985 15.3519ZM50.5899 50.0323C49.9459 50.8186 49.0359 51.2783 48.0302 51.3296C47.0479 51.3763 46.0679 51.0053 45.3655 50.3076L33.6662 38.6409C33.0035 37.9806 32.6395 37.1033 32.6395 36.1676C32.6395 35.2319 33.0058 34.3569 33.6662 33.6943C34.3522 33.0106 35.2552 32.6676 36.1558 32.6676C37.0565 32.6676 37.9572 33.0106 38.6432 33.6943L50.1092 45.1253C51.4999 46.5136 51.7099 48.6673 50.5899 50.0323ZM24.3398 39.8986C25.2498 40.8133 25.2475 42.2879 24.3352 43.1979L13.8888 53.6093C12.3535 55.1399 10.2652 55.9986 8.10218 55.9986C6.04651 55.9986 3.23018 54.7829 1.76018 52.9886C-0.864819 49.7896 -0.517152 44.8826 2.55818 41.8213L15.7835 28.6263C16.6935 27.7163 18.1728 27.7163 19.0828 28.6309C19.9928 29.5433 19.9905 31.0203 19.0782 31.9303L5.85051 45.1253C4.45985 46.5136 4.24518 48.6673 5.36518 50.0299C6.01151 50.8186 6.92151 51.2783 7.92718 51.3296C8.92118 51.3739 9.88951 51.0053 10.5918 50.3076L21.0405 39.8963C21.9528 38.9863 23.4275 38.9863 24.3422 39.9009L24.3398 39.8986ZM23.0705 10.8136C25.2172 5.3466 30.1265 1.3076 35.8828 0.273933C37.8965 -0.0854002 39.9195 -0.0924002 41.9005 0.259933C43.4545 0.535266 44.7075 1.63193 45.1719 3.11593C45.7062 4.81693 45.1719 6.68827 43.7439 8.12093L38.2955 13.3523C37.1638 14.4839 36.9795 16.2946 37.9105 17.4333C38.4472 18.0889 39.2009 18.4716 40.0362 18.5159C40.8505 18.5556 41.6555 18.2546 42.2459 17.6643L48.3452 11.7819C49.4792 10.6479 51.1755 10.2256 52.7622 10.7319C54.3115 11.2196 55.4479 12.5099 55.7302 14.0943C56.0802 16.0729 56.0755 18.1006 55.7162 20.1166C55.0605 23.7846 53.1495 27.2006 50.3355 29.7369C49.8899 30.1383 49.3299 30.3366 48.7745 30.3366C48.1375 30.3366 47.5005 30.0776 47.0409 29.5666C46.1775 28.6099 46.2545 27.1329 47.2112 26.2696C49.2575 24.4263 50.6459 21.9483 51.1219 19.2976C51.3505 18.0189 51.3832 16.7426 51.2222 15.4896L45.5172 20.9939C44.0355 22.4803 41.9472 23.2899 39.8052 23.1779C37.6679 23.0706 35.6612 22.0556 34.2985 20.3896C31.8672 17.4169 32.1892 12.8623 35.0312 10.0226L40.4772 4.79127L40.4982 4.77027C39.2499 4.6116 37.9758 4.64427 36.7065 4.87293C32.5345 5.6196 28.9762 8.5526 27.4152 12.5239C26.9462 13.7233 25.5905 14.3136 24.3912 13.8423C23.1918 13.3709 22.5992 12.0176 23.0728 10.8183L23.0705 10.8136Z" fill="black"/>
</svg>
