<svg width="56" height="56" viewBox="0 0 56 56" fill="none" xmlns="http://www.w3.org/2000/svg">
<g clip-path="url(#clip0_775_5123)">
<path d="M54.9648 53.0157C53.7608 54.8847 51.7098 56 49.4792 56H34.5202C32.0702 56 29.8512 54.6537 28.7288 52.486C27.6158 50.337 27.7932 47.7703 29.1908 45.794L31.3002 42.805L1.10683 24.1523C0.0101634 23.4757 -0.32817 22.0383 0.348497 20.9417C1.02516 19.8403 2.4625 19.5067 3.55916 20.1833L11.1215 24.8547L13.3522 18.6387C14.0265 16.758 15.4755 15.253 17.3305 14.5063C19.1855 13.7597 21.2715 13.8437 23.0612 14.735L24.1578 15.148C26.8365 16.4827 28.8758 18.7693 29.9002 21.5857L32.4785 29.0827C32.8938 30.2867 32.2662 31.6003 31.0692 32.0367C29.8418 32.4823 28.4885 31.836 28.0638 30.6017L25.5135 23.1817C25.4225 22.9343 25.2942 22.7103 25.1798 22.477L21.9318 31.5327L33.9975 38.9853L38.2955 32.8953C39.6582 30.9657 41.8608 29.939 44.2432 30.1653C46.6022 30.3893 48.5902 31.8033 49.5655 33.9523L55.4198 46.8533C56.3298 48.8553 56.1595 51.1607 54.9672 53.0157H54.9648ZM26.8318 11.6667C30.0542 11.6667 32.6652 9.05567 32.6652 5.83333C32.6652 2.611 30.0542 0 26.8318 0C23.6095 0 20.9985 2.611 20.9985 5.83333C20.9985 9.05567 23.6095 11.6667 26.8318 11.6667ZM20.9985 42C19.7082 42 18.6652 43.043 18.6652 44.3333V53.6667C18.6652 54.957 19.7082 56 20.9985 56C22.2888 56 23.3318 54.957 23.3318 53.6667V44.3333C23.3318 43.043 22.2888 42 20.9985 42ZM9.91983 34.8273C8.69716 34.398 7.3695 35.0303 6.94016 36.2437L1.02983 52.885C0.598163 54.1007 1.23283 55.4353 2.44616 55.8647C2.70516 55.9557 2.96883 56 3.22783 56C4.18683 56 5.0875 55.4027 5.42583 54.4483L11.3338 37.807C11.7655 36.5913 11.1332 35.2567 9.91983 34.8273Z" fill="black"/>
</g>
<defs>
<clipPath id="clip0_775_5123">
<rect width="56" height="56" fill="white"/>
</clipPath>
</defs>
</svg>
