<svg width="165" height="61" viewBox="0 0 165 61" fill="none" xmlns="http://www.w3.org/2000/svg">
<g filter="url(#filter0_i_1471_2520)">
<path d="M40.8665 35.2605C40.8665 35.743 40.7831 36.1911 40.6161 36.6048C40.4493 37.0184 40.216 37.3802 39.9157 37.6905C39.6154 37.9834 39.2649 38.216 38.8645 38.3886C38.4644 38.5609 38.0387 38.647 37.5885 38.647H22.9254C21.5408 38.647 20.1396 38.492 18.7216 38.1818C17.3037 37.8715 15.9275 37.3975 14.5929 36.7597C13.2751 36.1049 12.0323 35.2777 10.8646 34.2781C9.69692 33.2785 8.67101 32.098 7.78689 30.7365C6.91943 29.3577 6.23551 27.7894 5.73504 26.0315C5.2346 24.2564 4.98438 22.2831 4.98438 20.1116V1.57617H11.4902V20.1116C11.4902 22.0073 11.7404 23.6101 12.2409 24.9199C12.758 26.2297 13.4086 27.3241 14.1926 28.2031C14.9766 29.082 15.8357 29.7713 16.7699 30.2711C17.7041 30.7709 18.5882 31.1415 19.4223 31.3827C20.273 31.624 21.0154 31.7791 21.6492 31.8481C22.2998 31.8998 22.7252 31.9256 22.9254 31.9256H34.3606V1.57617H40.8665V35.2605ZM82.929 27.7377C82.929 29.0648 82.7623 30.2625 82.4285 31.3311C82.1115 32.3823 81.6861 33.313 81.1525 34.123C80.6185 34.933 79.993 35.6224 79.2759 36.1911C78.5584 36.7597 77.816 37.2253 77.0487 37.587C76.2814 37.9488 75.4973 38.216 74.6965 38.3886C73.9125 38.5609 73.1704 38.647 72.4697 38.647H47.3723V31.9256H72.4697C73.7208 31.9256 74.6883 31.5465 75.3723 30.7882C76.073 30.0299 76.4232 29.0131 76.4232 27.7377C76.4232 27.1173 76.3313 26.5486 76.1478 26.0315C75.9643 25.5145 75.6975 25.0664 75.3474 24.6873C75.0136 24.3081 74.5964 24.0151 74.0959 23.8083C73.6122 23.6015 73.0703 23.4981 72.4697 23.4981H57.5063C56.4554 23.4981 55.3209 23.3085 54.1033 22.9294C52.8857 22.533 51.7511 21.9039 50.7002 21.0422C49.666 20.1805 48.7986 19.0517 48.0979 17.6557C47.414 16.2597 47.072 14.5535 47.072 12.5371C47.072 10.5207 47.414 8.82315 48.0979 7.44443C48.7986 6.04845 49.666 4.91962 50.7002 4.0579C51.7511 3.17895 52.8857 2.5499 54.1033 2.17075C55.3209 1.77437 56.4554 1.57617 57.5063 1.57617H79.651V8.29753H57.5063C56.272 8.29753 55.3045 8.68529 54.6038 9.46084C53.9198 10.2364 53.5778 11.2618 53.5778 12.5371C53.5778 13.8297 53.9198 14.8551 54.6038 15.6134C55.3045 16.3545 56.272 16.725 57.5063 16.725H72.4697H72.5196C73.2203 16.7423 73.9627 16.8457 74.7467 17.0353C75.5308 17.2076 76.3063 17.4834 77.0737 17.8625C77.8577 18.2417 78.6001 18.7242 79.3008 19.3102C80.0015 19.8789 80.6185 20.5683 81.1525 21.3783C81.7029 22.1883 82.1367 23.119 82.4534 24.1702C82.7705 25.2215 82.929 26.4107 82.929 27.7377ZM120.362 8.29753H106.025V38.647H99.519V8.29753H85.1561V1.57617H120.362V8.29753ZM159.122 38.647H152.616V29.5473H129.746V38.647H123.24V20.1116C123.24 17.4058 123.69 14.9155 124.591 12.6406C125.492 10.3656 126.743 8.40956 128.345 6.77229C129.946 5.13503 131.839 3.85971 134.025 2.94629C136.21 2.03288 138.595 1.57617 141.181 1.57617H155.844C156.294 1.57617 156.72 1.66234 157.12 1.83468C157.521 2.00703 157.871 2.24831 158.171 2.55852C158.471 2.86874 158.705 3.23066 158.872 3.64428C159.039 4.0579 159.122 4.49737 159.122 4.96269V38.647ZM129.746 22.826H152.616V8.29753H141.181C140.981 8.29753 140.556 8.33198 139.905 8.40091C139.271 8.45262 138.529 8.59913 137.678 8.84041C136.844 9.08169 135.96 9.45223 135.025 9.95201C134.091 10.4518 133.232 11.1412 132.448 12.0201C131.664 12.8991 131.014 14.0021 130.496 15.3291C129.996 16.6389 129.746 18.233 129.746 20.1116V22.826Z" fill="#C12C2C"/>
</g>
<mask id="mask0_1471_2520" style="mask-type:luminance" maskUnits="userSpaceOnUse" x="4" y="0" width="156" height="39">
<path d="M159.774 0.880859H4.32812V39.0002H159.774V0.880859Z" fill="white"/>
<path d="M40.8743 35.2605C40.8743 35.743 40.7909 36.1911 40.6239 36.6048C40.4571 37.0184 40.2238 37.3802 39.9235 37.6905C39.6232 37.9834 39.2727 38.216 38.8723 38.3886C38.4722 38.5609 38.0465 38.647 37.5963 38.647H22.9332C21.5487 38.647 20.1474 38.492 18.7295 38.1818C17.3115 37.8715 15.9353 37.3975 14.6008 36.7597C13.2829 36.1049 12.0401 35.2777 10.8725 34.2781C9.70473 33.2785 8.67882 32.098 7.7947 30.7365C6.92724 29.3577 6.24332 27.7894 5.74285 26.0315C5.24241 24.2564 4.99219 22.2831 4.99219 20.1116V1.57617H11.498V20.1116C11.498 22.0073 11.7482 23.6101 12.2487 24.9199C12.7658 26.2297 13.4164 27.3241 14.2004 28.2031C14.9844 29.082 15.8435 29.7713 16.7777 30.2711C17.7119 30.7709 18.596 31.1415 19.4301 31.3827C20.2808 31.624 21.0232 31.7791 21.6571 31.8481C22.3076 31.8998 22.733 31.9256 22.9332 31.9256H34.3684V1.57617H40.8743V35.2605ZM82.9368 27.7377C82.9368 29.0648 82.7701 30.2625 82.4363 31.3311C82.1193 32.3823 81.6939 33.313 81.1603 34.123C80.6263 34.933 80.0008 35.6224 79.2837 36.1911C78.5662 36.7597 77.8238 37.2253 77.0565 37.587C76.2892 37.9488 75.5051 38.216 74.7043 38.3886C73.9203 38.5609 73.1782 38.647 72.4775 38.647H47.3801V31.9256H72.4775C73.7286 31.9256 74.6961 31.5465 75.3801 30.7882C76.0808 30.0299 76.431 29.0131 76.431 27.7377C76.431 27.1173 76.3391 26.5486 76.1556 26.0315C75.9722 25.5145 75.7053 25.0664 75.3552 24.6873C75.0214 24.3081 74.6042 24.0151 74.1037 23.8083C73.62 23.6015 73.0781 23.4981 72.4775 23.4981H57.5141C56.4632 23.4981 55.3287 23.3085 54.1111 22.9294C52.8935 22.533 51.7589 21.9039 50.708 21.0422C49.6739 20.1805 48.8064 19.0517 48.1057 17.6557C47.4218 16.2597 47.0798 14.5535 47.0798 12.5371C47.0798 10.5207 47.4218 8.82315 48.1057 7.44443C48.8064 6.04845 49.6739 4.91962 50.708 4.0579C51.7589 3.17895 52.8935 2.5499 54.1111 2.17075C55.3287 1.77437 56.4632 1.57617 57.5141 1.57617H79.6588V8.29753H57.5141C56.2798 8.29753 55.3123 8.68529 54.6116 9.46084C53.9276 10.2364 53.5856 11.2618 53.5856 12.5371C53.5856 13.8297 53.9276 14.8551 54.6116 15.6134C55.3123 16.3545 56.2798 16.725 57.5141 16.725H72.4775H72.5274C73.2281 16.7423 73.9705 16.8457 74.7546 17.0353C75.5386 17.2076 76.3141 17.4834 77.0815 17.8625C77.8655 18.2417 78.6079 18.7242 79.3086 19.3102C80.0093 19.8789 80.6263 20.5683 81.1603 21.3783C81.7107 22.1883 82.1445 23.119 82.4612 24.1702C82.7783 25.2215 82.9368 26.4107 82.9368 27.7377ZM120.37 8.29753H106.033V38.647H99.5268V8.29753H85.1639V1.57617H120.37V8.29753ZM159.13 38.647H152.624V29.5473H129.754V38.647H123.248V20.1116C123.248 17.4058 123.698 14.9155 124.599 12.6406C125.5 10.3656 126.751 8.40956 128.353 6.77229C129.954 5.13503 131.847 3.85971 134.033 2.94629C136.218 2.03288 138.603 1.57617 141.189 1.57617H155.852C156.302 1.57617 156.728 1.66234 157.128 1.83468C157.528 2.00703 157.879 2.24831 158.179 2.55852C158.479 2.86874 158.713 3.23066 158.88 3.64428C159.046 4.0579 159.13 4.49737 159.13 4.96269V38.647ZM129.754 22.826H152.624V8.29753H141.189C140.989 8.29753 140.563 8.33198 139.913 8.40091C139.279 8.45262 138.536 8.59913 137.686 8.84041C136.851 9.08169 135.968 9.45223 135.033 9.95201C134.099 10.4518 133.24 11.1412 132.456 12.0201C131.672 12.8991 131.021 14.0021 130.504 15.3291C130.004 16.6389 129.754 18.233 129.754 20.1116V22.826Z" fill="black"/>
</mask>
<g mask="url(#mask0_1471_2520)">
<path d="M39.9214 37.6919L40.1558 37.9485L40.1595 37.9449L40.1629 37.9414L39.9214 37.6919ZM14.5986 36.7611L14.4506 37.0791L14.4529 37.0805L14.4553 37.0816L14.5986 36.7611ZM7.79259 30.7379L7.50612 30.9302L7.50749 30.9324L7.50886 30.9345L7.79259 30.7379ZM5.74074 26.0329L5.41273 26.1316L5.41299 26.1325L5.74074 26.0329ZM4.99008 1.57757V1.22461H4.64844V1.57757H4.99008ZM11.4959 1.57757H11.8375V1.22461H11.4959V1.57757ZM12.2466 24.9213L11.9288 25.0509L11.9302 25.0546L12.2466 24.9213ZM19.428 31.3841L19.3359 31.724L19.3375 31.7245L19.428 31.3841ZM21.6549 31.8495L21.6192 32.2005L21.624 32.201L21.6287 32.2014L21.6549 31.8495ZM34.3663 31.927V32.28H34.708V31.927H34.3663ZM34.3663 1.57757V1.22461H34.0247V1.57757H34.3663ZM40.8722 1.57757H41.2138V1.22461H40.8722V1.57757ZM40.5305 35.2619C40.5305 35.7014 40.4547 36.103 40.3064 36.4704L40.9371 36.7417C41.1226 36.282 41.2138 35.7874 41.2138 35.2619H40.5305ZM40.3064 36.4704C40.1564 36.8423 39.9477 37.1652 39.6799 37.4423L40.1629 37.9414C40.4953 37.598 40.7536 37.197 40.9371 36.7417L40.3064 36.4704ZM39.6867 37.4353C39.4178 37.6975 39.1032 37.9072 38.739 38.0642L39.0017 38.7158C39.4383 38.5277 39.824 38.2721 40.1558 37.9485L39.6867 37.4353ZM38.739 38.0642C38.382 38.2178 38.0014 38.2954 37.5942 38.2954V39.0013C38.0878 39.0013 38.5583 38.9067 39.0017 38.7158L38.739 38.0642ZM37.5942 38.2954H22.9311V39.0013H37.5942V38.2954ZM22.9311 38.2954C21.5714 38.2954 20.1939 38.1429 18.7981 37.8376L18.6566 38.5284C20.0967 38.8436 21.5217 39.0013 22.9311 39.0013V38.2954ZM18.7981 37.8376C17.4056 37.533 16.0537 37.0675 14.7421 36.4409L14.4553 37.0816C15.8127 37.7303 17.2132 38.2125 18.6566 38.5284L18.7981 37.8376ZM14.7467 36.4432C13.4548 35.8011 12.2354 34.9897 11.0883 34.0077L10.6523 34.5513C11.8407 35.5685 13.1068 36.4115 14.4506 37.0791L14.7467 36.4432ZM11.0883 34.0077C9.94703 33.0308 8.94295 31.8759 8.07628 30.5412L7.50886 30.9345C8.41044 32.3229 9.45821 33.529 10.6523 34.5513L11.0883 34.0077ZM8.07902 30.5455C7.23155 29.1985 6.56067 27.6621 6.06851 25.9333L5.41299 26.1325C5.92174 27.9195 6.61872 29.5197 7.50612 30.9302L8.07902 30.5455ZM6.06875 25.9342C5.57876 24.1962 5.33171 22.2567 5.33171 20.113H4.64844C4.64844 22.3122 4.90183 24.3194 5.41273 26.1316L6.06875 25.9342ZM5.33171 20.113V1.57757H4.64844V20.113H5.33171ZM4.99008 1.93052H11.4959V1.22461H4.99008V1.93052ZM11.1542 1.57757V20.113H11.8375V1.57757H11.1542ZM11.1542 20.113C11.1542 22.0386 11.4081 23.6883 11.9288 25.0509L12.5643 24.7917C12.0841 23.5348 11.8375 21.9788 11.8375 20.113H11.1542ZM11.9302 25.0546C12.46 26.3965 13.1308 27.5286 13.9471 28.4436L14.4495 27.9653C13.6977 27.1224 13.0674 26.0658 12.5629 24.788L11.9302 25.0546ZM13.9471 28.4436C14.7554 29.3498 15.6457 30.0655 16.6185 30.586L16.9327 29.9591C16.0372 29.48 15.2093 28.817 14.4495 27.9653L13.9471 28.4436ZM16.6185 30.586C17.5692 31.0946 18.4751 31.4751 19.3359 31.724L19.5201 31.0443C18.7127 30.8107 17.8504 30.4501 16.9327 29.9591L16.6185 30.586ZM19.3375 31.7245C20.1999 31.9691 20.9613 32.1289 21.6192 32.2005L21.6907 31.4985C21.0808 31.4321 20.3575 31.2818 19.5184 31.0438L19.3375 31.7245ZM21.6287 32.2014C22.2763 32.2529 22.7154 32.28 22.9311 32.28V31.5741C22.7465 31.5741 22.3347 31.5495 21.6811 31.4976L21.6287 32.2014ZM22.9311 32.28H34.3663V31.5741H22.9311V32.28ZM34.708 31.927V1.57757H34.0247V31.927H34.708ZM34.3663 1.93052H40.8722V1.22461H34.3663V1.93052ZM40.5305 1.57757V35.2619H41.2138V1.57757H40.5305ZM82.4342 31.3325L82.109 31.2241L82.1079 31.2275L82.4342 31.3325ZM74.7022 38.39L74.6325 38.0445H74.6312L74.7022 38.39ZM47.378 38.6484H47.0364V39.0013H47.378V38.6484ZM47.378 31.927V31.5741H47.0364V31.927H47.378ZM75.378 30.7896L75.1307 30.5458L75.1279 30.5489L75.378 30.7896ZM75.3531 24.6886L75.1003 24.9261L75.103 24.9293L75.1057 24.9324L75.3531 24.6886ZM74.1016 23.8097L73.9711 24.1359L73.9749 24.1374L74.1016 23.8097ZM54.109 22.9308L54.0061 23.2674L54.0102 23.2687L54.109 22.9308ZM50.7059 21.0436L50.4913 21.3184L50.4934 21.3201L50.7059 21.0436ZM48.1036 17.6571L47.7989 17.8165L47.8003 17.8196L48.1036 17.6571ZM48.1036 7.44583L47.8003 7.28336L47.7996 7.28484L48.1036 7.44583ZM50.7059 4.05929L50.9204 4.33404L50.9208 4.33363L50.7059 4.05929ZM54.109 2.17215L54.2077 2.51012L54.2114 2.50879L54.109 2.17215ZM79.6567 1.57757H79.9983V1.22461H79.6567V1.57757ZM79.6567 8.29892V8.65188H79.9983V8.29892H79.6567ZM54.6095 9.46223L54.3597 9.22137L54.357 9.22452L54.6095 9.46223ZM54.6095 15.6148L54.3594 15.8554L54.3621 15.8585L54.3648 15.8615L54.6095 15.6148ZM72.5253 16.7264L72.5335 16.3736L72.5294 16.3735H72.5253V16.7264ZM74.7525 17.0366L74.6746 17.3803L74.678 17.3811L74.6814 17.3819L74.7525 17.0366ZM77.0794 17.8639L76.9321 18.1823L76.9345 18.1836L77.0794 17.8639ZM79.3065 19.3116L79.0916 19.5859L79.0933 19.5875L79.0954 19.5891L79.3065 19.3116ZM81.1582 21.3797L80.8756 21.5783L80.877 21.5804L80.8784 21.5825L81.1582 21.3797ZM82.5931 27.7391C82.5931 29.0359 82.4301 30.1963 82.109 31.2241L82.7594 31.4408C83.1059 30.3316 83.2763 29.0964 83.2763 27.7391H82.5931ZM82.1079 31.2275C81.7998 32.2495 81.3884 33.1479 80.8756 33.9257L81.4404 34.323C81.9955 33.4809 82.4345 32.5179 82.7605 31.4374L82.1079 31.2275ZM80.8756 33.9257C80.3615 34.7063 79.7605 35.3677 79.0735 35.9125L79.4893 36.4725C80.2368 35.8798 80.8873 35.1625 81.4404 34.323L80.8756 33.9257ZM79.0735 35.9125C78.3752 36.4661 77.6547 36.9175 76.9126 37.2673L77.1962 37.9096C77.9888 37.5359 78.753 37.0562 79.4893 36.4725L79.0735 35.9125ZM76.9126 37.2673C76.1675 37.6188 75.4077 37.8775 74.6325 38.0445L74.7719 38.7355C75.5984 38.5577 76.4067 38.282 77.1962 37.9096L76.9126 37.2673ZM74.6312 38.0445C73.8673 38.2125 73.1488 38.2954 72.4754 38.2954V39.0013C73.2031 39.0013 73.9694 38.9117 74.7733 38.7352L74.6312 38.0445ZM72.4754 38.2954H47.378V39.0013H72.4754V38.2954ZM47.7196 38.6484V31.927H47.0364V38.6484H47.7196ZM47.378 32.28H72.4754V31.5741H47.378V32.28ZM72.4754 32.28C73.7962 32.28 74.8642 31.8771 75.6277 31.0302L75.1279 30.5489C74.5239 31.2187 73.6568 31.5741 72.4754 31.5741V32.28ZM75.625 31.0333C76.3988 30.1957 76.7705 29.0844 76.7705 27.7391H76.0872C76.0872 28.9445 75.7582 29.8668 75.1307 30.5458L75.625 31.0333ZM76.7705 27.7391C76.7705 27.0824 76.6735 26.472 76.4743 25.9114L75.8327 26.1544C76.0008 26.6279 76.0872 27.1549 76.0872 27.7391H76.7705ZM76.4743 25.9114C76.2755 25.3512 75.9844 24.8609 75.6001 24.4449L75.1057 24.9324C75.4221 25.2747 75.6646 25.6806 75.8327 26.1544L76.4743 25.9114ZM75.6059 24.4512C75.2342 24.0292 74.773 23.7069 74.2287 23.482L73.9749 24.1374C74.4317 24.3261 74.8044 24.5898 75.1003 24.9261L75.6059 24.4512ZM74.2325 23.4836C73.7016 23.2566 73.1143 23.1465 72.4754 23.1465V23.8525C73.0374 23.8525 73.5345 23.9492 73.9711 24.1359L74.2325 23.4836ZM72.4754 23.1465H57.512V23.8525H72.4754V23.1465ZM57.512 23.1465C56.5004 23.1465 55.3997 22.964 54.2077 22.5928L54.0102 23.2687C55.2538 23.6558 56.4215 23.8525 57.512 23.8525V23.1465ZM54.2114 22.5941C53.0355 22.2113 51.9382 21.6034 50.9184 20.7672L50.4934 21.3201C51.5754 22.2072 52.7468 22.8574 54.0061 23.2674L54.2114 22.5941ZM50.9204 20.7689C49.928 19.942 49.0889 18.8535 48.407 17.4946L47.8003 17.8196C48.5194 19.2526 49.4155 20.4218 50.4913 21.3184L50.9204 20.7689ZM48.4084 17.4977C47.7545 16.1633 47.4193 14.515 47.4193 12.5385H46.7361C46.7361 14.5948 47.0845 16.3589 47.7989 17.8165L48.4084 17.4977ZM47.4193 12.5385C47.4193 10.5618 47.7548 8.92298 48.4077 7.60681L47.7996 7.28484C47.0845 8.72611 46.7361 10.4825 46.7361 12.5385H47.4193ZM48.407 7.60829C49.0889 6.24941 49.928 5.16092 50.9204 4.33404L50.4913 3.78455C49.4155 4.68108 48.5194 5.85028 47.8003 7.28336L48.407 7.60829ZM50.9208 4.33363C51.9396 3.48164 53.0348 2.87524 54.2077 2.51012L54.0102 1.8342C52.7475 2.22738 51.574 2.87906 50.491 3.78496L50.9208 4.33363ZM54.2114 2.50879C55.4031 2.12098 56.5025 1.93052 57.512 1.93052V1.22461C56.4198 1.22461 55.2504 1.43054 54.0061 1.8355L54.2114 2.50879ZM57.512 1.93052H79.6567V1.22461H57.512V1.93052ZM79.315 1.57757V8.29892H79.9983V1.57757H79.315ZM79.6567 7.94596H57.512V8.65188H79.6567V7.94596ZM57.512 7.94596C56.2035 7.94596 55.1376 8.36002 54.3597 9.22137L54.8592 9.70305C55.4823 9.01331 56.3515 8.65188 57.512 8.65188V7.94596ZM54.357 9.22452C53.6037 10.0784 53.2419 11.1952 53.2419 12.5385H53.9252C53.9252 11.3312 54.247 10.3971 54.8619 9.69995L54.357 9.22452ZM53.2419 12.5385C53.2419 13.8973 53.603 15.0167 54.3594 15.8554L54.8592 15.3742C54.248 14.6964 53.9252 13.7649 53.9252 12.5385H53.2419ZM54.3648 15.8615C55.1441 16.6856 56.2083 17.0794 57.512 17.0794V16.3735C56.347 16.3735 55.4759 16.0262 54.8537 15.3682L54.3648 15.8615ZM57.512 17.0794H72.4754V16.3735H57.512V17.0794ZM72.4754 17.0794H72.5253V16.3735H72.4754V17.0794ZM72.5171 17.0793C73.1912 17.0959 73.91 17.1955 74.6746 17.3803L74.8304 16.693C74.0265 16.4987 73.2609 16.3915 72.5335 16.3736L72.5171 17.0793ZM74.6814 17.3819C75.4374 17.5481 76.1877 17.8145 76.9321 18.1823L77.227 17.5455C76.4367 17.1551 75.6356 16.8699 74.8235 16.6914L74.6814 17.3819ZM76.9345 18.1836C77.6926 18.5501 78.4114 19.0172 79.0916 19.5859L79.5214 19.0372C78.8002 18.434 78.0342 17.936 77.2242 17.5442L76.9345 18.1836ZM79.0954 19.5891C79.7667 20.1341 80.3605 20.7963 80.8756 21.5783L81.4404 21.181C80.8883 20.343 80.2474 19.6265 79.5176 19.034L79.0954 19.5891ZM80.8784 21.5825C81.4065 22.3594 81.8254 23.2563 82.1332 24.2766L82.7854 24.0667C82.4591 22.9844 82.0106 22.02 81.4376 21.1769L80.8784 21.5825ZM82.1332 24.2766C82.438 25.2878 82.5931 26.4406 82.5931 27.7391H83.2763C83.2763 26.3835 83.1144 25.1581 82.7854 24.0667L82.1332 24.2766ZM120.368 8.29892V8.65188H120.71V8.29892H120.368ZM106.03 8.29892V7.94596H105.689V8.29892H106.03ZM106.03 38.6484V39.0013H106.372V38.6484H106.03ZM99.5247 38.6484H99.183V39.0013H99.5247V38.6484ZM99.5247 8.29892H99.8663V7.94596H99.5247V8.29892ZM85.1618 8.29892H84.8202V8.65188H85.1618V8.29892ZM85.1618 1.57757V1.22461H84.8202V1.57757H85.1618ZM120.368 1.57757H120.71V1.22461H120.368V1.57757ZM120.368 7.94596H106.03V8.65188H120.368V7.94596ZM105.689 8.29892V38.6484H106.372V8.29892H105.689ZM106.03 38.2954H99.5247V39.0013H106.03V38.2954ZM99.8663 38.6484V8.29892H99.183V38.6484H99.8663ZM99.5247 7.94596H85.1618V8.65188H99.5247V7.94596ZM85.5035 8.29892V1.57757H84.8202V8.29892H85.5035ZM85.1618 1.93052H120.368V1.22461H85.1618V1.93052ZM120.026 1.57757V8.29892H120.71V1.57757H120.026ZM159.128 38.6484V39.0013H159.469V38.6484H159.128ZM152.622 38.6484H152.28V39.0013H152.622V38.6484ZM152.622 29.5487H152.963V29.1958H152.622V29.5487ZM129.751 29.5487V29.1958H129.41V29.5487H129.751ZM129.751 38.6484V39.0013H130.093V38.6484H129.751ZM123.246 38.6484H122.904V39.0013H123.246V38.6484ZM129.751 22.8274H129.41V23.1803H129.751V22.8274ZM152.622 22.8274V23.1803H152.963V22.8274H152.622ZM152.622 8.29892H152.963V7.94596H152.622V8.29892ZM139.91 8.4023L139.937 8.75416L139.942 8.75385L139.945 8.75342L139.91 8.4023ZM137.684 8.8418L137.593 8.50141L137.591 8.50191L137.684 8.8418ZM130.502 15.3305L130.185 15.1987L130.184 15.2009L130.502 15.3305ZM159.128 38.2954H152.622V39.0013H159.128V38.2954ZM152.963 38.6484V29.5487H152.28V38.6484H152.963ZM152.622 29.1958H129.751V29.9017H152.622V29.1958ZM129.41 29.5487V38.6484H130.093V29.5487H129.41ZM129.751 38.2954H123.246V39.0013H129.751V38.2954ZM123.587 38.6484V20.113H122.904V38.6484H123.587ZM123.587 20.113C123.587 17.4484 124.031 15.004 124.913 12.7756L124.281 12.5083C123.361 14.8297 122.904 17.366 122.904 20.113H123.587ZM124.913 12.7756C125.797 10.5421 127.023 8.62657 128.591 7.02457L128.11 6.52281C126.474 8.19529 125.198 10.1919 124.281 12.5083L124.913 12.7756ZM128.591 7.02457C130.158 5.42169 132.013 4.1716 134.159 3.27488L133.902 2.62049C131.677 3.5506 129.745 4.85117 128.11 6.52281L128.591 7.02457ZM134.159 3.27488C136.299 2.38006 138.641 1.93052 141.187 1.93052V1.22461C138.561 1.22461 136.132 1.68849 133.902 2.62049L134.159 3.27488ZM141.187 1.93052H155.85V1.22461H141.187V1.93052ZM155.85 1.93052C156.257 1.93052 156.637 2.00815 156.994 2.16189L157.257 1.51027C156.814 1.31932 156.344 1.22461 155.85 1.22461V1.93052ZM156.994 2.16189C157.354 2.31688 157.667 2.53259 157.935 2.80949L158.418 2.31034C158.086 1.96682 157.698 1.69996 157.257 1.51027L156.994 2.16189ZM157.935 2.80949C158.203 3.08641 158.412 3.40943 158.562 3.78142L159.193 3.50992C159.009 3.05468 158.751 2.65386 158.418 2.31034L157.935 2.80949ZM158.562 3.78142C158.711 4.15038 158.786 4.54354 158.786 4.96408H159.469C159.469 4.45399 159.378 3.96821 159.193 3.50992L158.562 3.78142ZM158.786 4.96408V38.6484H159.469V4.96408H158.786ZM129.751 23.1803H152.622V22.4744H129.751V23.1803ZM152.963 22.8274V8.29892H152.28V22.8274H152.963ZM152.622 7.94596H141.187V8.65188H152.622V7.94596ZM141.187 7.94596C140.966 7.94596 140.522 7.98271 139.876 8.05122L139.945 8.75342C140.6 8.68407 141.007 8.65188 141.187 8.65188V7.94596ZM139.884 8.05044C139.222 8.10444 138.457 8.25632 137.593 8.50141L137.774 9.18216C138.611 8.94469 139.331 8.80361 139.937 8.75416L139.884 8.05044ZM137.591 8.50191C136.731 8.75088 135.825 9.13137 134.874 9.63998L135.188 10.2668C136.106 9.77583 136.968 9.41525 137.776 9.18167L137.591 8.50191ZM134.874 9.63998C133.901 10.1605 133.011 10.8761 132.203 11.7823L132.705 12.2607C133.465 11.409 134.293 10.7459 135.188 10.2668L134.874 9.63998ZM132.203 11.7823C131.386 12.6981 130.715 13.8396 130.185 15.1987L130.819 15.4623C131.324 14.1673 131.954 13.1027 132.705 12.2607L132.203 11.7823ZM130.184 15.2009C129.664 16.5632 129.41 18.2041 129.41 20.113H130.093C130.093 18.2648 130.339 16.7173 130.82 15.4601L130.184 15.2009ZM129.41 20.113V22.8274H130.093V20.113H129.41Z" fill="white" fill-opacity="0.6"/>
</g>
<mask id="mask1_1471_2520" style="mask-type:luminance" maskUnits="userSpaceOnUse" x="0" y="47" width="165" height="14">
<path d="M165 47.043H0V60.4012H165V47.043Z" fill="white"/>
<path d="M2.84733 59.7153H0.609375V47.7238H2.84733V59.7153ZM17.7986 58.7871C17.7986 58.9433 17.767 59.0882 17.7039 59.2221C17.6465 59.3557 17.5662 59.4728 17.4629 59.5732C17.3654 59.6681 17.2477 59.7431 17.11 59.7989C16.9723 59.8547 16.8259 59.8825 16.671 59.8825C16.5333 59.8825 16.3927 59.8575 16.2492 59.8075C16.1115 59.7571 15.9881 59.6763 15.8791 59.565L7.70196 51.2695V59.7153H5.46402V48.652C5.46402 48.429 5.52713 48.2283 5.65339 48.0499C5.78535 47.8659 5.95176 47.7296 6.15262 47.6402C6.36493 47.5566 6.58299 47.5371 6.8068 47.5816C7.03057 47.6207 7.22282 47.721 7.38349 47.8827L15.5606 56.1696V47.7238H17.7986V58.7871ZM31.562 49.8981H26.6299V59.7153H24.392V49.8981H19.4512V47.7238H31.562V49.8981ZM43.3629 54.8149H36.2961V52.6242H43.3629V54.8149ZM44.3699 59.7153H36.2961C35.9862 59.7153 35.6478 59.6622 35.2805 59.5564C34.9132 59.4506 34.5718 59.2776 34.2562 59.0378C33.9463 58.7926 33.6852 58.4778 33.4729 58.0932C33.2663 57.7027 33.163 57.2263 33.163 56.6632V48.8192C33.163 48.6688 33.1917 48.5266 33.2491 48.3927C33.3065 48.2591 33.384 48.142 33.4815 48.0416C33.5848 47.9413 33.7053 47.8632 33.843 47.8074C33.9807 47.7519 34.1299 47.7238 34.2906 47.7238H44.3699V49.8981H35.401V56.6632C35.401 56.9475 35.4784 57.1649 35.6333 57.3153C35.7884 57.466 36.0151 57.541 36.3134 57.541H44.3699V59.7153ZM58.8736 51.7545C58.8736 52.2505 58.8105 52.6937 58.6843 53.0842C58.5581 53.4743 58.386 53.8199 58.1678 54.121C57.9556 54.4166 57.7088 54.6701 57.4278 54.8821C57.1464 55.0937 56.851 55.2695 56.5411 55.4089C56.2368 55.5424 55.9269 55.6401 55.6114 55.7014C55.3015 55.7627 55.0088 55.7935 54.7335 55.7935L59.4074 59.7153H55.947L51.2819 55.7935H49.6724V53.6192H54.7335C55.0148 53.5969 55.2701 53.5411 55.4996 53.4521C55.7348 53.3572 55.9357 53.2318 56.1021 53.0756C56.2742 52.9198 56.406 52.7328 56.4981 52.5153C56.5897 52.2923 56.6356 52.0388 56.6356 51.7545V50.3831C56.6356 50.2605 56.6186 50.1683 56.5841 50.107C56.5555 50.0402 56.5153 49.993 56.4635 49.9649C56.4177 49.9317 56.3662 49.9121 56.3087 49.9063C56.2569 49.9008 56.2083 49.8981 56.1624 49.8981H48.7769V59.7153H46.5392V48.8192C46.5392 48.6688 46.5677 48.5266 46.6252 48.3927C46.6827 48.2591 46.7599 48.142 46.8576 48.0416C46.9609 47.9413 47.0814 47.8632 47.2193 47.8074C47.3568 47.7519 47.5059 47.7238 47.6667 47.7238H56.1624C56.6617 47.7238 57.0833 47.8132 57.4278 47.9913C57.7719 48.1643 58.0504 48.3845 58.2626 48.652C58.4805 48.914 58.6357 49.1983 58.7273 49.5049C58.825 49.8118 58.8736 50.0988 58.8736 50.3663V51.7545ZM73.455 58.7871C73.455 58.9433 73.4233 59.0882 73.3601 59.2221C73.3027 59.3557 73.2223 59.4728 73.119 59.5732C73.0217 59.6681 72.9039 59.7431 72.7661 59.7989C72.6286 59.8547 72.4823 59.8825 72.3271 59.8825C72.1896 59.8825 72.049 59.8575 71.9055 59.8075C71.7676 59.7571 71.6442 59.6763 71.5353 59.565L63.3583 51.2695V59.7153H61.1202V48.652C61.1202 48.429 61.1833 48.2283 61.3095 48.0499C61.4417 47.8659 61.6081 47.7296 61.8087 47.6402C62.0213 47.5566 62.2392 47.5371 62.4631 47.5816C62.687 47.6207 62.8791 47.721 63.0399 47.8827L71.2169 56.1696V47.7238H73.455V58.7871ZM88.1738 59.7153H85.9358V56.7717H78.0686V59.7153H75.8306V53.7196C75.8306 52.8444 75.9853 52.0388 76.2952 51.3028C76.6051 50.567 77.0356 49.9344 77.5863 49.4045C78.1374 48.875 78.7886 48.4626 79.5402 48.167C80.2919 47.8718 81.1127 47.7238 82.0022 47.7238H87.046C87.2011 47.7238 87.3474 47.7519 87.4849 47.8074C87.6228 47.8632 87.7434 47.9413 87.8466 48.0416C87.95 48.142 88.0303 48.2591 88.0875 48.3927C88.1449 48.5266 88.1738 48.6688 88.1738 48.8192V59.7153ZM78.0686 54.5978H85.9358V49.8981H82.0022C81.9331 49.8981 81.7868 49.9091 81.5633 49.9317C81.345 49.9481 81.0898 49.9957 80.7971 50.0738C80.5101 50.1516 80.2059 50.2714 79.8847 50.4331C79.5632 50.5948 79.2677 50.8178 78.998 51.1024C78.7283 51.3867 78.5044 51.7432 78.3267 52.1728C78.1547 52.5961 78.0686 53.1119 78.0686 53.7196V54.5978ZM101.937 49.8981H97.0049V59.7153H94.7671V49.8981H89.8263V47.7238H101.937V49.8981ZM105.845 59.7153H103.607V47.7238H105.845V59.7153ZM121.416 54.8653C121.416 55.5955 121.287 56.2672 121.029 56.8807C120.771 57.4938 120.412 58.0233 119.953 58.4693C119.494 58.9152 118.948 59.2639 118.317 59.5146C117.692 59.7599 117.009 59.8825 116.269 59.8825H113.239C112.499 59.8825 111.813 59.7599 111.181 59.5146C110.55 59.2639 110.005 58.9152 109.546 58.4693C109.087 58.0233 108.726 57.4938 108.462 56.8807C108.203 56.2672 108.074 55.5955 108.074 54.8653V52.5738C108.074 51.8494 108.203 51.1801 108.462 50.567C108.726 49.9481 109.087 49.4186 109.546 48.9781C110.005 48.5321 110.55 48.1838 111.181 47.9331C111.813 47.682 112.499 47.5566 113.239 47.5566H116.269C117.009 47.5566 117.692 47.682 118.317 47.9331C118.948 48.1838 119.494 48.5321 119.953 48.9781C120.412 49.4186 120.771 49.9481 121.029 50.567C121.287 51.1801 121.416 51.8494 121.416 52.5738V54.8653ZM119.178 52.5738C119.178 52.1447 119.106 51.7573 118.963 51.4117C118.825 51.0603 118.627 50.7623 118.369 50.517C118.116 50.266 117.809 50.0738 117.448 49.9399C117.092 49.8005 116.699 49.7309 116.269 49.7309H113.239C112.803 49.7309 112.404 49.8005 112.042 49.9399C111.687 50.0738 111.38 50.266 111.122 50.517C110.863 50.7623 110.662 51.0603 110.519 51.4117C110.381 51.7573 110.312 52.1447 110.312 52.5738V54.8653C110.312 55.2945 110.381 55.6846 110.519 56.036C110.662 56.3816 110.863 56.6799 111.122 56.9307C111.38 57.1759 111.687 57.3684 112.042 57.5078C112.404 57.6414 112.803 57.7085 113.239 57.7085H116.251C116.687 57.7085 117.083 57.6414 117.439 57.5078C117.801 57.3684 118.111 57.1759 118.369 56.9307C118.627 56.6799 118.825 56.3816 118.963 56.036C119.106 55.6846 119.178 55.2945 119.178 54.8653V52.5738ZM135.962 58.7871C135.962 58.9433 135.931 59.0882 135.868 59.2221C135.811 59.3557 135.73 59.4728 135.627 59.5732C135.53 59.6681 135.412 59.7431 135.274 59.7989C135.136 59.8547 134.99 59.8825 134.835 59.8825C134.697 59.8825 134.557 59.8575 134.413 59.8075C134.275 59.7571 134.152 59.6763 134.043 59.565L125.866 51.2695V59.7153H123.628V48.652C123.628 48.429 123.691 48.2283 123.817 48.0499C123.95 47.8659 124.116 47.7296 124.317 47.6402C124.529 47.5566 124.747 47.5371 124.971 47.5816C125.194 47.6207 125.387 47.721 125.547 47.8827L133.725 56.1696V47.7238H135.962V58.7871ZM150.682 59.7153H148.444V56.7717H140.576V59.7153H138.338V53.7196C138.338 52.8444 138.493 52.0388 138.803 51.3028C139.113 50.567 139.543 49.9344 140.094 49.4045C140.645 48.875 141.296 48.4626 142.048 48.167C142.8 47.8718 143.621 47.7238 144.51 47.7238H149.554C149.709 47.7238 149.855 47.7519 149.993 47.8074C150.131 47.8632 150.251 47.9413 150.355 48.0416C150.458 48.142 150.538 48.2591 150.595 48.3927C150.653 48.5266 150.682 48.6688 150.682 48.8192V59.7153ZM140.576 54.5978H148.444V49.8981H144.51C144.441 49.8981 144.295 49.9091 144.071 49.9317C143.853 49.9481 143.598 49.9957 143.305 50.0738C143.018 50.1516 142.714 50.2714 142.393 50.4331C142.071 50.5948 141.776 50.8178 141.506 51.1024C141.236 51.3867 141.012 51.7432 140.835 52.1728C140.663 52.5961 140.576 53.1119 140.576 53.7196V54.5978ZM164.626 59.7153H154.417C154.257 59.7153 154.107 59.6876 153.97 59.6318C153.832 59.5759 153.711 59.5006 153.608 59.406C153.511 59.3057 153.433 59.1885 153.376 59.0546C153.318 58.921 153.29 58.7758 153.29 58.62V47.7238H155.528V57.541H164.626V59.7153Z" fill="black"/>
</mask>
<g mask="url(#mask1_1471_2520)">
<path d="M2.84833 59.7161V60.0586H3.2009V59.7161H2.84833ZM0.610377 59.7161H0.257812V60.0586H0.610377V59.7161ZM0.610377 47.7245V47.382H0.257812V47.7245H0.610377ZM2.84833 47.7245H3.2009V47.382H2.84833V47.7245ZM2.84833 59.3735H0.610377V60.0586H2.84833V59.3735ZM0.96294 59.7161V47.7245H0.257812V59.7161H0.96294ZM0.610377 48.067H2.84833V47.382H0.610377V48.067ZM2.49577 47.7245V59.7161H3.2009V47.7245H2.49577ZM17.7049 59.2228L17.3844 59.08L17.3818 59.0855L17.3795 59.091L17.7049 59.2228ZM16.2502 59.8082L16.1264 60.1288L16.1308 60.1302L16.2502 59.8082ZM15.8801 59.5657L16.1357 59.3297L16.1347 59.3287L15.8801 59.5657ZM7.70296 51.2703L7.95762 51.0332L7.3504 50.4174V51.2703H7.70296ZM7.70296 59.7161V60.0586H8.05553V59.7161H7.70296ZM5.46502 59.7161H5.11246V60.0586H5.46502V59.7161ZM5.65439 48.0506L5.36514 47.855L5.36387 47.8567L5.65439 48.0506ZM6.15362 47.6409L6.02116 47.3234L6.01404 47.3265L6.00702 47.3296L6.15362 47.6409ZM6.8078 47.5824L6.73694 47.918L6.7412 47.9187L6.7455 47.9194L6.8078 47.5824ZM7.38449 47.8834L7.63901 47.6464L7.63812 47.6457L7.38449 47.8834ZM15.5617 56.1703L15.3071 56.4073L15.9142 57.0228V56.1703H15.5617ZM15.5617 47.7245V47.382H15.2091V47.7245H15.5617ZM17.7996 47.7245H18.1521V47.382H17.7996V47.7245ZM17.447 58.7878C17.447 58.8978 17.4251 58.9937 17.3844 59.08L18.0254 59.3653C18.1109 59.1841 18.1521 58.9903 18.1521 58.7878H17.447ZM17.3795 59.091C17.3394 59.1845 17.2846 59.2636 17.2146 59.3318L17.7132 59.8161C17.8498 59.6835 17.9557 59.5287 18.0304 59.3544L17.3795 59.091ZM17.2146 59.3318C17.1522 59.3924 17.0741 59.4434 16.9754 59.4835L17.2466 60.1158C17.4233 60.0442 17.5805 59.9449 17.7132 59.8161L17.2146 59.3318ZM16.9754 59.4835C16.8823 59.5212 16.7822 59.5407 16.672 59.5407V60.2257C16.8717 60.2257 17.0642 60.1898 17.2466 60.1158L16.9754 59.4835ZM16.672 59.5407C16.5791 59.5407 16.4789 59.5239 16.3697 59.4859L16.1308 60.1302C16.3085 60.1925 16.4895 60.2257 16.672 60.2257V59.5407ZM16.374 59.4873C16.29 59.4568 16.2109 59.4064 16.1357 59.3297L15.6245 59.8013C15.7674 59.9476 15.935 60.0589 16.1264 60.1288L16.374 59.4873ZM16.1347 59.3287L7.95762 51.0332L7.44834 51.5069L15.6255 59.8024L16.1347 59.3287ZM7.3504 51.2703V59.7161H8.05553V51.2703H7.3504ZM7.70296 59.3735H5.46502V60.0586H7.70296V59.3735ZM5.81759 59.7161V48.6527H5.11246V59.7161H5.81759ZM5.81759 48.6527C5.81759 48.4969 5.86035 48.3643 5.9449 48.2448L5.36387 47.8567C5.19595 48.0941 5.11246 48.3626 5.11246 48.6527H5.81759ZM5.94363 48.2465C6.04126 48.1105 6.15936 48.015 6.30021 47.9526L6.00702 47.3296C5.74619 47.4454 5.53148 47.6231 5.36514 47.855L5.94363 48.2465ZM6.28608 47.9585C6.43415 47.9002 6.58149 47.8869 6.73694 47.918L6.87863 47.247C6.5865 47.1888 6.29775 47.2145 6.02116 47.3234L6.28608 47.9585ZM6.7455 47.9194C6.89503 47.9458 7.02068 48.0105 7.13085 48.1215L7.63812 47.6457C7.42694 47.433 7.16816 47.2974 6.87006 47.2453L6.7455 47.9194ZM7.12997 48.1205L15.3071 56.4073L15.8162 55.9333L7.63901 47.6464L7.12997 48.1205ZM15.9142 56.1703V47.7245H15.2091V56.1703H15.9142ZM15.5617 48.067H17.7996V47.382H15.5617V48.067ZM17.447 47.7245V58.7878H18.1521V47.7245H17.447ZM31.563 49.8988V50.2413H31.9156V49.8988H31.563ZM26.6309 49.8988V49.5563H26.2784V49.8988H26.6309ZM26.6309 59.7161V60.0586H26.9835V59.7161H26.6309ZM24.393 59.7161H24.0404V60.0586H24.393V59.7161ZM24.393 49.8988H24.7455V49.5563H24.393V49.8988ZM19.4522 49.8988H19.0997V50.2413H19.4522V49.8988ZM19.4522 47.7245V47.382H19.0997V47.7245H19.4522ZM31.563 47.7245H31.9156V47.382H31.563V47.7245ZM31.563 49.5563H26.6309V50.2413H31.563V49.5563ZM26.2784 49.8988V59.7161H26.9835V49.8988H26.2784ZM26.6309 59.3735H24.393V60.0586H26.6309V59.3735ZM24.7455 59.7161V49.8988H24.0404V59.7161H24.7455ZM24.393 49.5563H19.4522V50.2413H24.393V49.5563ZM19.8048 49.8988V47.7245H19.0997V49.8988H19.8048ZM19.4522 48.067H31.563V47.382H19.4522V48.067ZM31.2105 47.7245V49.8988H31.9156V47.7245H31.2105ZM43.3639 54.8157V55.1582H43.7165V54.8157H43.3639ZM36.2971 54.8157H35.9446V55.1582H36.2971V54.8157ZM36.2971 52.6249V52.2824H35.9446V52.6249H36.2971ZM43.3639 52.6249H43.7165V52.2824H43.3639V52.6249ZM44.3709 59.7161V60.0586H44.7234V59.7161H44.3709ZM34.2572 59.0386L34.0345 59.3043L34.0372 59.3064L34.04 59.3085L34.2572 59.0386ZM33.4739 58.0939L33.1604 58.2504L33.1618 58.2532L33.1632 58.2556L33.4739 58.0939ZM33.4825 48.0424L33.2332 47.8002L33.2297 47.8036L33.2262 47.8071L33.4825 48.0424ZM44.3709 47.7245H44.7234V47.382H44.3709V47.7245ZM44.3709 49.8988V50.2413H44.7234V49.8988H44.3709ZM35.402 49.8988V49.5563H35.0494V49.8988H35.402ZM44.3709 57.5417H44.7234V57.1992H44.3709V57.5417ZM43.3639 54.4731H36.2971V55.1582H43.3639V54.4731ZM36.6497 54.8157V52.6249H35.9446V54.8157H36.6497ZM36.2971 52.9674H43.3639V52.2824H36.2971V52.9674ZM43.0114 52.6249V54.8157H43.7165V52.6249H43.0114ZM44.3709 59.3735H36.2971V60.0586H44.3709V59.3735ZM36.2971 59.3735C36.0281 59.3735 35.7239 59.3276 35.3818 59.2287L35.1811 59.8856C35.5736 59.9986 35.9463 60.0586 36.2971 60.0586V59.3735ZM35.3818 59.2287C35.0589 59.1358 34.7568 58.9834 34.4743 58.769L34.04 59.3085C34.3889 59.5736 34.7696 59.7667 35.1811 59.8856L35.3818 59.2287ZM34.4799 58.7731C34.2103 58.5597 33.9777 58.2816 33.7846 57.9319L33.1632 58.2556C33.3948 58.6751 33.6843 59.0269 34.0345 59.3043L34.4799 58.7731ZM33.7874 57.937C33.6127 57.6072 33.5166 57.1872 33.5166 56.6639H32.8114C32.8114 57.2664 32.9219 57.8 33.1604 58.2504L33.7874 57.937ZM33.5166 56.6639V48.8199H32.8114V56.6639H33.5166ZM33.5166 48.8199C33.5166 48.713 33.5367 48.6157 33.5756 48.5253L32.9247 48.2619C32.8487 48.439 32.8114 48.626 32.8114 48.8199H33.5166ZM33.5756 48.5253C33.6173 48.4277 33.672 48.3462 33.7388 48.2777L33.2262 47.8071C33.0979 47.9393 32.9976 48.0917 32.9247 48.2619L33.5756 48.5253ZM33.7318 48.2845C33.8018 48.2164 33.8835 48.1633 33.9796 48.1242L33.7084 47.4919C33.5291 47.5646 33.3698 47.6677 33.2332 47.8002L33.7318 48.2845ZM33.9796 48.1242C34.0712 48.0872 34.1739 48.067 34.2916 48.067V47.382C34.088 47.382 33.8923 47.4176 33.7084 47.4919L33.9796 48.1242ZM34.2916 48.067H44.3709V47.382H34.2916V48.067ZM44.0183 47.7245V49.8988H44.7234V47.7245H44.0183ZM44.3709 49.5563H35.402V50.2413H44.3709V49.5563ZM35.0494 49.8988V56.6639H35.7545V49.8988H35.0494ZM35.0494 56.6639C35.0494 57.0074 35.1442 57.3243 35.3851 57.5582L35.8836 57.0739C35.8148 57.0067 35.7545 56.8889 35.7545 56.6639H35.0494ZM35.3851 57.5582C35.6273 57.7935 35.9573 57.8843 36.3144 57.8843V57.1992C36.0747 57.1992 35.9516 57.1396 35.8836 57.0739L35.3851 57.5582ZM36.3144 57.8843H44.3709V57.1992H36.3144V57.8843ZM44.0183 57.5417V59.7161H44.7234V57.5417H44.0183ZM58.1688 54.1217L57.8804 53.9244L57.8797 53.9258L58.1688 54.1217ZM56.5421 55.4096L56.6873 55.7216L56.6902 55.7202L56.5421 55.4096ZM55.6124 55.7021L55.5433 55.3664H55.5422L55.6124 55.7021ZM54.7345 55.7942V55.4517H53.7868L54.5039 56.0535L54.7345 55.7942ZM59.4084 59.7161V60.0586H60.3558L59.6386 59.4568L59.4084 59.7161ZM55.948 59.7161L55.7174 59.975L55.8169 60.0586H55.948V59.7161ZM51.2829 55.7942L51.5135 55.5353L51.4144 55.4517H51.2829V55.7942ZM49.6734 55.7942H49.3209V56.1367H49.6734V55.7942ZM49.6734 53.6199V53.2774H49.3209V53.6199H49.6734ZM54.7345 53.6199V53.9624H54.7489L54.763 53.9614L54.7345 53.6199ZM55.5006 53.4528L55.6314 53.7706L55.6356 53.7693L55.5006 53.4528ZM56.1031 53.0764L55.8623 52.826L55.8602 52.828L55.8581 52.8301L56.1031 53.0764ZM56.4991 52.516L56.8252 52.6461L56.8262 52.6434L56.4991 52.516ZM56.5851 50.1077L56.2597 50.2396L56.2667 50.2561L56.2755 50.2718L56.5851 50.1077ZM56.4645 49.9656L56.253 50.2396L56.2724 50.2537L56.2935 50.265L56.4645 49.9656ZM56.3097 49.907L56.2706 50.2475L56.2745 50.2478L56.3097 49.907ZM48.7779 49.8988V49.5563H48.4254V49.8988H48.7779ZM48.7779 59.7161V60.0586H49.1305V59.7161H48.7779ZM46.5402 59.7161H46.1876V60.0586H46.5402V59.7161ZM46.8586 48.0424L46.6093 47.8002L46.6058 47.8036L46.6022 47.8071L46.8586 48.0424ZM57.4288 47.992L57.2627 48.2945L57.267 48.2965L57.4288 47.992ZM58.2636 48.6527L57.9844 48.862L57.9869 48.8651L57.9894 48.8682L58.2636 48.6527ZM58.7283 49.5056L58.3899 49.6015L58.3906 49.6042L58.3916 49.607L58.7283 49.5056ZM58.5221 51.7553C58.5221 52.2238 58.4625 52.6314 58.349 52.9822L59.0217 53.1873C59.1606 52.7578 59.2272 52.279 59.2272 51.7553H58.5221ZM58.349 52.9822C58.2323 53.3425 58.0754 53.6555 57.8804 53.9244L58.4572 54.3187C58.6984 53.9857 58.8856 53.6076 59.0217 53.1873L58.349 52.9822ZM57.8797 53.9258C57.6869 54.194 57.4644 54.4221 57.2127 54.6119L57.6445 55.1534C57.9552 54.9194 58.2263 54.6403 58.4579 54.3176L57.8797 53.9258ZM57.2127 54.6119C56.9514 54.8088 56.6785 54.9705 56.394 55.0986L56.6902 55.7202C57.0251 55.5695 57.3435 55.3805 57.6445 55.1534L57.2127 54.6119ZM56.3965 55.0975C56.1158 55.2209 55.8317 55.3102 55.5433 55.3664L55.6815 56.0381C56.0245 55.9713 56.3598 55.8658 56.6873 55.7216L56.3965 55.0975ZM55.5422 55.3664C55.252 55.424 54.983 55.4517 54.7345 55.4517V56.1367C55.0366 56.1367 55.3532 56.1032 55.6829 56.0378L55.5422 55.3664ZM54.5039 56.0535L59.1778 59.9753L59.6386 59.4568L54.9651 55.5349L54.5039 56.0535ZM59.4084 59.3735H55.948V60.0586H59.4084V59.3735ZM56.1789 59.4571L51.5135 55.5353L51.0523 56.0532L55.7174 59.975L56.1789 59.4571ZM51.2829 55.4517H49.6734V56.1367H51.2829V55.4517ZM50.026 55.7942V53.6199H49.3209V55.7942H50.026ZM49.6734 53.9624H54.7345V53.2774H49.6734V53.9624ZM54.763 53.9614C55.0747 53.9368 55.3649 53.8744 55.6314 53.7706L55.3694 53.1346C55.177 53.2096 54.9566 53.2586 54.7059 53.2784L54.763 53.9614ZM55.6356 53.7693C55.9075 53.6597 56.1469 53.5117 56.3478 53.323L55.8581 52.8301C55.7266 52.9534 55.5641 53.0565 55.3656 53.1363L55.6356 53.7693ZM56.3436 53.3267C56.5541 53.1363 56.7145 52.9078 56.8252 52.6461L56.1729 52.3862C56.0996 52.5591 55.9967 52.7044 55.8623 52.826L56.3436 53.3267ZM56.8262 52.6434C56.9377 52.3732 56.9891 52.0752 56.9891 51.7553H56.284C56.284 52.0039 56.2442 52.2132 56.1715 52.3889L56.8262 52.6434ZM56.9891 51.7553V50.3838H56.284V51.7553H56.9891ZM56.9891 50.3838C56.9891 50.2413 56.9711 50.0803 56.8946 49.9437L56.2755 50.2718C56.2699 50.2615 56.2731 50.2626 56.277 50.2841C56.2808 50.3047 56.284 50.3369 56.284 50.3838H56.9891ZM56.9105 49.9762C56.8594 49.857 56.7734 49.7406 56.6359 49.6662L56.2935 50.265C56.278 50.2567 56.2674 50.2468 56.2614 50.24C56.2558 50.2335 56.2561 50.2317 56.2597 50.2396L56.9105 49.9762ZM56.6761 49.6916C56.5784 49.6207 56.4659 49.5782 56.3446 49.5662L56.2745 50.2478C56.2727 50.2478 56.2688 50.2472 56.2636 50.2451C56.2586 50.2434 56.2547 50.241 56.253 50.2396L56.6761 49.6916ZM56.3485 49.5666C56.2858 49.5601 56.2237 49.5563 56.1634 49.5563V50.2413C56.1948 50.2413 56.2304 50.243 56.2706 50.2475L56.3485 49.5666ZM56.1634 49.5563H48.7779V50.2413H56.1634V49.5563ZM48.4254 49.8988V59.7161H49.1305V49.8988H48.4254ZM48.7779 59.3735H46.5402V60.0586H48.7779V59.3735ZM46.8928 59.7161V48.8199H46.1876V59.7161H46.8928ZM46.8928 48.8199C46.8928 48.713 46.9128 48.6157 46.9516 48.5253L46.3008 48.2619C46.2246 48.439 46.1876 48.626 46.1876 48.8199H46.8928ZM46.9516 48.5253C46.9936 48.4277 47.0482 48.3462 47.1149 48.2777L46.6022 47.8071C46.4739 47.9393 46.3738 48.0917 46.3008 48.2619L46.9516 48.5253ZM47.1078 48.2845C47.178 48.2164 47.2594 48.1633 47.3557 48.1242L47.0845 47.4919C46.9051 47.5646 46.7457 47.6677 46.6093 47.8002L47.1078 48.2845ZM47.3557 48.1242C47.4473 48.0872 47.5499 48.067 47.6677 48.067V47.382C47.4643 47.382 47.2686 47.4176 47.0845 47.4919L47.3557 48.1242ZM47.6677 48.067H56.1634V47.382H47.6677V48.067ZM56.1634 48.067C56.6203 48.067 56.9817 48.1489 57.2627 48.2945L57.5945 47.6899C57.1869 47.4786 56.7046 47.382 56.1634 47.382V48.067ZM57.267 48.2965C57.5705 48.4489 57.8071 48.6383 57.9844 48.862L58.5429 48.4438C58.2954 48.1321 57.9753 47.881 57.5906 47.6879L57.267 48.2965ZM57.9894 48.8682C58.1797 49.0966 58.312 49.3409 58.3899 49.6015L59.0668 49.41C58.9614 49.0576 58.7837 48.7329 58.5376 48.4373L57.9894 48.8682ZM58.3916 49.607C58.4808 49.8872 58.5221 50.1399 58.5221 50.367H59.2272C59.2272 50.0591 59.1712 49.7378 59.0654 49.4046L58.3916 49.607ZM58.5221 50.367V51.7553H59.2272V50.367H58.5221ZM73.3611 59.2228L73.0407 59.08L73.0382 59.0855L73.0357 59.091L73.3611 59.2228ZM71.9065 59.8082L71.7827 60.1288L71.7869 60.1302L71.9065 59.8082ZM71.5363 59.5657L71.7919 59.3297L71.7908 59.3287L71.5363 59.5657ZM63.3593 51.2703L63.6138 51.0332L63.0067 50.4174V51.2703H63.3593ZM63.3593 59.7161V60.0586H63.7118V59.7161H63.3593ZM61.1212 59.7161H60.7686V60.0586H61.1212V59.7161ZM61.3105 48.0506L61.0214 47.855L61.02 47.8567L61.3105 48.0506ZM61.8097 47.6409L61.6775 47.3234L61.6701 47.3265L61.6634 47.3296L61.8097 47.6409ZM62.4641 47.5824L62.3932 47.918L62.3975 47.9187L62.4017 47.9194L62.4641 47.5824ZM63.0409 47.8834L63.2951 47.6464L63.2944 47.6457L63.0409 47.8834ZM71.2179 56.1703L70.9634 56.4073L71.5705 57.0228V56.1703H71.2179ZM71.2179 47.7245V47.382H70.8653V47.7245H71.2179ZM73.456 47.7245H73.8086V47.382H73.456V47.7245ZM73.1034 58.7878C73.1034 58.8978 73.0812 58.9937 73.0407 59.08L73.6816 59.3653C73.7673 59.1841 73.8086 58.9903 73.8086 58.7878H73.1034ZM73.0357 59.091C72.9955 59.1845 72.9409 59.2636 72.8707 59.3318L73.3696 59.8161C73.5061 59.6835 73.6118 59.5287 73.6866 59.3544L73.0357 59.091ZM72.8707 59.3318C72.8083 59.3924 72.7304 59.4434 72.6317 59.4835L72.9028 60.1158C73.0795 60.0442 73.2367 59.9449 73.3696 59.8161L72.8707 59.3318ZM72.6317 59.4835C72.5386 59.5212 72.4385 59.5407 72.3281 59.5407V60.2257C72.528 60.2257 72.7205 60.1898 72.9028 60.1158L72.6317 59.4835ZM72.3281 59.5407C72.2354 59.5407 72.1353 59.5239 72.026 59.4859L71.7869 60.1302C71.9646 60.1925 72.1459 60.2257 72.3281 60.2257V59.5407ZM72.0302 59.4873C71.9463 59.4568 71.867 59.4064 71.7919 59.3297L71.2807 59.8013C71.4238 59.9476 71.5913 60.0589 71.7827 60.1288L72.0302 59.4873ZM71.7908 59.3287L63.6138 51.0332L63.1047 51.5069L71.2817 59.8024L71.7908 59.3287ZM63.0067 51.2703V59.7161H63.7118V51.2703H63.0067ZM63.3593 59.3735H61.1212V60.0586H63.3593V59.3735ZM61.4737 59.7161V48.6527H60.7686V59.7161H61.4737ZM61.4737 48.6527C61.4737 48.4969 61.5168 48.3643 61.601 48.2448L61.02 47.8567C60.8522 48.0941 60.7686 48.3626 60.7686 48.6527H61.4737ZM61.6 48.2465C61.6976 48.1105 61.8157 48.015 61.9564 47.9526L61.6634 47.3296C61.4025 47.4454 61.1878 47.6231 61.0214 47.855L61.6 48.2465ZM61.9423 47.9585C62.0904 47.9002 62.2378 47.8869 62.3932 47.918L62.535 47.247C62.2427 47.1888 61.9539 47.2145 61.6775 47.3234L61.9423 47.9585ZM62.4017 47.9194C62.5512 47.9458 62.677 48.0105 62.787 48.1215L63.2944 47.6457C63.0832 47.433 62.8244 47.2974 62.5261 47.2453L62.4017 47.9194ZM62.7863 48.1205L70.9634 56.4073L71.4725 55.9333L63.2951 47.6464L62.7863 48.1205ZM71.5705 56.1703V47.7245H70.8653V56.1703H71.5705ZM71.2179 48.067H73.456V47.382H71.2179V48.067ZM73.1034 47.7245V58.7878H73.8086V47.7245H73.1034ZM88.1748 59.7161V60.0586H88.5274V59.7161H88.1748ZM85.9368 59.7161H85.5842V60.0586H85.9368V59.7161ZM85.9368 56.7725H86.2893V56.4299H85.9368V56.7725ZM78.0696 56.7725V56.4299H77.7171V56.7725H78.0696ZM78.0696 59.7161V60.0586H78.4222V59.7161H78.0696ZM75.8316 59.7161H75.479V60.0586H75.8316V59.7161ZM78.0696 54.5985H77.7171V54.941H78.0696V54.5985ZM85.9368 54.5985V54.941H86.2893V54.5985H85.9368ZM85.9368 49.8988H86.2893V49.5563H85.9368V49.8988ZM81.5643 49.9324L81.5918 50.2735H81.596L81.6002 50.2728L81.5643 49.9324ZM80.7981 50.0745L80.7047 49.744L80.7029 49.7447L80.7981 50.0745ZM78.3277 52.1735L78.0005 52.0454L77.9998 52.0474L78.3277 52.1735ZM88.1748 59.3735H85.9368V60.0586H88.1748V59.3735ZM86.2893 59.7161V56.7725H85.5842V59.7161H86.2893ZM85.9368 56.4299H78.0696V57.115H85.9368V56.4299ZM77.7171 56.7725V59.7161H78.4222V56.7725H77.7171ZM78.0696 59.3735H75.8316V60.0586H78.0696V59.3735ZM76.1841 59.7161V53.7203H75.479V59.7161H76.1841ZM76.1841 53.7203C76.1841 52.8849 76.3319 52.1241 76.6227 51.4333L75.9701 51.174C75.6412 51.9549 75.479 52.8051 75.479 53.7203H76.1841ZM76.6227 51.4333C76.9157 50.7376 77.3201 50.1444 77.8355 49.6488L77.3395 49.1621C76.7528 49.7258 76.297 50.3979 75.9701 51.174L76.6227 51.4333ZM77.8355 49.6488C78.3517 49.1525 78.963 48.7647 79.6735 48.4852L79.409 47.8502C78.6161 48.1619 77.9251 48.599 77.3395 49.1621L77.8355 49.6488ZM79.6735 48.4852C80.3793 48.2078 81.1546 48.067 82.0032 48.067V47.382C81.0728 47.382 80.2069 47.5368 79.409 47.8502L79.6735 48.4852ZM82.0032 48.067H87.047V47.382H82.0032V48.067ZM87.047 48.067C87.1573 48.067 87.2575 48.0866 87.3505 48.1242L87.6217 47.4919C87.4394 47.4183 87.2469 47.382 87.047 47.382V48.067ZM87.3505 48.1242C87.4468 48.1633 87.5282 48.2164 87.5984 48.2845L88.0969 47.8002C87.9605 47.6677 87.8011 47.5646 87.6217 47.4919L87.3505 48.1242ZM87.5984 48.2845C87.6682 48.3527 87.7232 48.4318 87.763 48.5253L88.4142 48.2619C88.3395 48.0876 88.2334 47.9328 88.0969 47.8002L87.5984 48.2845ZM87.763 48.5253C87.8018 48.6157 87.8223 48.713 87.8223 48.8199H88.5274C88.5274 48.626 88.49 48.439 88.4142 48.2619L87.763 48.5253ZM87.8223 48.8199V59.7161H88.5274V48.8199H87.8223ZM78.0696 54.941H85.9368V54.256H78.0696V54.941ZM86.2893 54.5985V49.8988H85.5842V54.5985H86.2893ZM85.9368 49.5563H82.0032V50.2413H85.9368V49.5563ZM82.0032 49.5563C81.9129 49.5563 81.7479 49.5697 81.5283 49.5916L81.6002 50.2728C81.828 50.2502 81.9556 50.2413 82.0032 50.2413V49.5563ZM81.5364 49.5909C81.2896 49.6097 81.0111 49.6625 80.7047 49.744L80.8912 50.4047C81.1701 50.3304 81.4028 50.2883 81.5918 50.2735L81.5364 49.5909ZM80.7029 49.7447C80.3885 49.83 80.062 49.9594 79.7235 50.1297L80.0479 50.738C80.3521 50.5849 80.6338 50.4749 80.893 50.4044L80.7029 49.7447ZM79.7235 50.1297C79.3621 50.3115 79.0346 50.5602 78.7399 50.8709L79.2585 51.335C79.5032 51.0771 79.7662 50.8798 80.0479 50.738L79.7235 50.1297ZM78.7399 50.8709C78.4363 51.1908 78.1913 51.585 78.0005 52.0454L78.6549 52.3012C78.8199 51.9029 79.0226 51.5837 79.2585 51.335L78.7399 50.8709ZM77.9998 52.0474C77.807 52.5222 77.7171 53.0832 77.7171 53.7203H78.4222C78.4222 53.1421 78.5044 52.6718 78.6556 52.2992L77.9998 52.0474ZM77.7171 53.7203V54.5985H78.4222V53.7203H77.7171ZM101.938 49.8988V50.2413H102.291V49.8988H101.938ZM97.0059 49.8988V49.5563H96.6533V49.8988H97.0059ZM97.0059 59.7161V60.0586H97.3584V59.7161H97.0059ZM94.7681 59.7161H94.4156V60.0586H94.7681V59.7161ZM94.7681 49.8988H95.1207V49.5563H94.7681V49.8988ZM89.8273 49.8988H89.4747V50.2413H89.8273V49.8988ZM89.8273 47.7245V47.382H89.4747V47.7245H89.8273ZM101.938 47.7245H102.291V47.382H101.938V47.7245ZM101.938 49.5563H97.0059V50.2413H101.938V49.5563ZM96.6533 49.8988V59.7161H97.3584V49.8988H96.6533ZM97.0059 59.3735H94.7681V60.0586H97.0059V59.3735ZM95.1207 59.7161V49.8988H94.4156V59.7161H95.1207ZM94.7681 49.5563H89.8273V50.2413H94.7681V49.5563ZM90.1799 49.8988V47.7245H89.4747V49.8988H90.1799ZM89.8273 48.067H101.938V47.382H89.8273V48.067ZM101.586 47.7245V49.8988H102.291V47.7245H101.586ZM105.846 59.7161V60.0586H106.199V59.7161H105.846ZM103.608 59.7161H103.255V60.0586H103.608V59.7161ZM103.608 47.7245V47.382H103.255V47.7245H103.608ZM105.846 47.7245H106.199V47.382H105.846V47.7245ZM105.846 59.3735H103.608V60.0586H105.846V59.3735ZM103.961 59.7161V47.7245H103.255V59.7161H103.961ZM103.608 48.067H105.846V47.382H103.608V48.067ZM105.493 47.7245V59.7161H106.199V47.7245H105.493ZM118.318 59.5153L118.45 59.8329L118.452 59.8325L118.318 59.5153ZM111.182 59.5153L111.049 59.8325L111.052 59.8335L111.182 59.5153ZM108.463 56.8814L108.136 57.0109L108.137 57.0132L108.463 56.8814ZM108.463 50.5677L108.137 50.4366L108.136 50.4379L108.463 50.5677ZM109.547 48.9788L109.795 49.2227L109.797 49.221L109.547 48.9788ZM118.318 47.9338L118.184 48.2503L118.185 48.2506L118.318 47.9338ZM119.954 48.9788L119.704 49.221L119.706 49.2227L119.954 48.9788ZM121.03 50.5677L120.703 50.6965L120.703 50.6976L121.03 50.5677ZM118.964 51.4124L118.634 51.5343L118.636 51.5374L118.637 51.5405L118.964 51.4124ZM118.37 50.5177L118.118 50.7572L118.121 50.7599L118.123 50.7626L118.37 50.5177ZM117.449 49.9406L117.317 50.2581L117.32 50.2595L117.323 50.2605L117.449 49.9406ZM112.043 49.9406L112.171 50.2602L112.174 50.2588L112.043 49.9406ZM111.123 50.5177L111.369 50.7626L111.372 50.7599L111.123 50.5177ZM110.52 51.4124L110.192 51.286L110.191 51.2887L110.52 51.4124ZM110.52 56.0367L110.19 56.1587L110.191 56.1617L110.193 56.1648L110.52 56.0367ZM111.123 56.9314L110.873 57.1735L110.876 57.1763L111.123 56.9314ZM112.043 57.5085L111.912 57.826L111.915 57.8274L111.918 57.8284L112.043 57.5085ZM117.44 57.5085L117.567 57.8278L117.57 57.8267L117.44 57.5085ZM118.37 56.9314L118.616 57.1763L118.619 57.1735L118.37 56.9314ZM118.964 56.0367L118.636 55.9103L118.635 55.9131L118.964 56.0367ZM121.064 54.866C121.064 55.5562 120.942 56.1837 120.703 56.7516L121.356 57.0109C121.633 56.3525 121.77 55.6363 121.77 54.866H121.064ZM120.703 56.7516C120.462 57.3249 120.129 57.8158 119.704 58.2278L120.203 58.7121C120.697 58.2326 121.081 57.664 121.356 57.0109L120.703 56.7516ZM119.704 58.2278C119.28 58.6402 118.775 58.9639 118.185 59.1985L118.452 59.8325C119.124 59.565 119.709 59.192 120.203 58.7121L119.704 58.2278ZM118.186 59.1978C117.607 59.4249 116.969 59.5407 116.27 59.5407V60.2257C117.051 60.2257 117.779 60.0962 118.45 59.8329L118.186 59.1978ZM116.27 59.5407H113.24V60.2257H116.27V59.5407ZM113.24 59.5407C112.541 59.5407 111.9 59.4249 111.314 59.1975L111.052 59.8335C111.728 60.0962 112.459 60.2257 113.24 60.2257V59.5407ZM111.316 59.1985C110.726 58.9639 110.221 58.6402 109.797 58.2278L109.298 58.7121C109.792 59.192 110.377 59.565 111.049 59.8325L111.316 59.1985ZM109.797 58.2278C109.372 57.8151 109.035 57.3236 108.788 56.7492L108.137 57.0132C108.418 57.6654 108.805 58.233 109.298 58.7121L109.797 58.2278ZM108.789 56.7516C108.55 56.1837 108.428 55.5562 108.428 54.866H107.723C107.723 55.6363 107.859 56.3525 108.136 57.0109L108.789 56.7516ZM108.428 54.866V52.5746H107.723V54.866H108.428ZM108.428 52.5746C108.428 51.8902 108.55 51.2658 108.789 50.6976L108.136 50.4379C107.859 51.0963 107.723 51.8097 107.723 52.5746H108.428ZM108.788 50.6989C109.036 50.1194 109.372 49.6289 109.795 49.2227L109.299 48.7353C108.805 49.21 108.418 49.7786 108.137 50.4366L108.788 50.6989ZM109.797 49.221C110.221 48.8089 110.726 48.4852 111.316 48.2506L111.049 47.6166C110.377 47.8838 109.792 48.2571 109.298 48.7367L109.797 49.221ZM111.316 48.2506C111.901 48.018 112.541 47.8999 113.24 47.8999V47.2148C112.458 47.2148 111.726 47.3474 111.049 47.6166L111.316 48.2506ZM113.24 47.8999H116.27V47.2148H113.24V47.8999ZM116.27 47.8999C116.968 47.8999 117.605 48.018 118.184 48.2503L118.453 47.617C117.781 47.3474 117.052 47.2148 116.27 47.2148V47.8999ZM118.185 48.2506C118.775 48.4852 119.28 48.8089 119.704 49.221L120.203 48.7367C119.709 48.2571 119.124 47.8838 118.452 47.6166L118.185 48.2506ZM119.706 49.2227C120.129 49.6282 120.462 50.118 120.703 50.6965L121.356 50.439C121.081 49.78 120.697 49.2104 120.201 48.7353L119.706 49.2227ZM120.703 50.6976C120.942 51.2658 121.064 51.8902 121.064 52.5746H121.77C121.77 51.8097 121.633 51.0963 121.356 50.4379L120.703 50.6976ZM121.064 52.5746V54.866H121.77V52.5746H121.064ZM119.532 52.5746C119.532 52.108 119.454 51.6761 119.291 51.2843L118.637 51.5405C118.761 51.8395 118.826 52.1827 118.826 52.5746H119.532ZM119.293 51.2905C119.139 50.8962 118.913 50.5551 118.616 50.2728L118.123 50.7626C118.343 50.9706 118.513 51.2261 118.634 51.5343L119.293 51.2905ZM118.622 50.278C118.331 49.9892 117.98 49.7707 117.574 49.6203L117.323 50.2605C117.641 50.378 117.903 50.5441 118.118 50.7572L118.622 50.278ZM117.581 49.6231C117.178 49.4652 116.74 49.3891 116.27 49.3891V50.0742C116.66 50.0742 117.008 50.1372 117.317 50.2581L117.581 49.6231ZM116.27 49.3891H113.24V50.0742H116.27V49.3891ZM113.24 49.3891C112.764 49.3891 112.321 49.4652 111.913 49.6221L112.174 50.2588C112.489 50.1372 112.843 50.0742 113.24 50.0742V49.3891ZM111.916 49.621C111.517 49.7714 111.168 49.9892 110.873 50.2752L111.372 50.7599C111.594 50.5441 111.859 50.3773 112.171 50.2602L111.916 49.621ZM110.876 50.2728C110.58 50.554 110.353 50.8938 110.192 51.286L110.848 51.5388C110.974 51.2285 111.149 50.9716 111.369 50.7626L110.876 50.2728ZM110.191 51.2887C110.035 51.6796 109.961 52.1098 109.961 52.5746H110.666C110.666 52.181 110.729 51.8364 110.849 51.536L110.191 51.2887ZM109.961 52.5746V54.866H110.666V52.5746H109.961ZM109.961 54.866C109.961 55.3311 110.035 55.7634 110.19 56.1587L110.849 55.9148C110.729 55.6076 110.666 55.2596 110.666 54.866H109.961ZM110.193 56.1648C110.353 56.5508 110.58 56.8886 110.873 57.1735L111.372 56.6892C111.149 56.4724 110.973 56.2138 110.847 55.9086L110.193 56.1648ZM110.876 57.1763C111.169 57.4548 111.516 57.6709 111.912 57.826L112.175 57.1907C111.859 57.067 111.592 56.8985 111.369 56.6865L110.876 57.1763ZM111.918 57.8284C112.324 57.9788 112.766 58.0518 113.24 58.0518V57.3667C112.841 57.3667 112.486 57.3054 112.169 57.1883L111.918 57.8284ZM113.24 58.0518H116.252V57.3667H113.24V58.0518ZM116.252 58.0518C116.726 58.0518 117.166 57.9788 117.567 57.8278L117.313 57.189C117.003 57.3054 116.651 57.3667 116.252 57.3667V58.0518ZM117.57 57.8267C117.972 57.6719 118.322 57.4558 118.616 57.1763L118.123 56.6865C117.901 56.8978 117.632 57.066 117.31 57.19L117.57 57.8267ZM118.619 57.1735C118.913 56.8875 119.138 56.5485 119.292 56.1604L118.635 55.9131C118.514 56.2162 118.343 56.4734 118.121 56.6892L118.619 57.1735ZM119.291 56.1631C119.454 55.7665 119.532 55.3325 119.532 54.866H118.826C118.826 55.2578 118.761 55.6045 118.636 55.9103L119.291 56.1631ZM119.532 54.866V52.5746H118.826V54.866H119.532ZM135.869 59.2228L135.549 59.08L135.546 59.0855L135.544 59.091L135.869 59.2228ZM134.414 59.8082L134.291 60.1288L134.295 60.1302L134.414 59.8082ZM134.044 59.5657L134.3 59.3297L134.299 59.3287L134.044 59.5657ZM125.867 51.2703L126.122 51.0332L125.515 50.4174V51.2703H125.867ZM125.867 59.7161V60.0586H126.22V59.7161H125.867ZM123.629 59.7161H123.276V60.0586H123.629V59.7161ZM123.818 48.0506L123.529 47.855L123.528 47.8567L123.818 48.0506ZM124.318 47.6409L124.185 47.3234L124.178 47.3265L124.171 47.3296L124.318 47.6409ZM124.972 47.5824L124.901 47.918L124.905 47.9187L124.91 47.9194L124.972 47.5824ZM125.548 47.8834L125.803 47.6464L125.802 47.6457L125.548 47.8834ZM133.726 56.1703L133.471 56.4073L134.078 57.0228V56.1703H133.726ZM133.726 47.7245V47.382H133.373V47.7245H133.726ZM135.963 47.7245H136.316V47.382H135.963V47.7245ZM135.611 58.7878C135.611 58.8978 135.589 58.9937 135.549 59.08L136.189 59.3653C136.275 59.1841 136.316 58.9903 136.316 58.7878H135.611ZM135.544 59.091C135.503 59.1845 135.449 59.2636 135.379 59.3318L135.877 59.8161C136.014 59.6835 136.12 59.5287 136.194 59.3544L135.544 59.091ZM135.379 59.3318C135.316 59.3924 135.238 59.4434 135.14 59.4835L135.411 60.1158C135.587 60.0442 135.745 59.9449 135.877 59.8161L135.379 59.3318ZM135.14 59.4835C135.046 59.5212 134.946 59.5407 134.836 59.5407V60.2257C135.036 60.2257 135.228 60.1898 135.411 60.1158L135.14 59.4835ZM134.836 59.5407C134.743 59.5407 134.643 59.5239 134.534 59.4859L134.295 60.1302C134.472 60.1925 134.653 60.2257 134.836 60.2257V59.5407ZM134.538 59.4873C134.454 59.4568 134.375 59.4064 134.3 59.3297L133.789 59.8013C133.932 59.9476 134.099 60.0589 134.291 60.1288L134.538 59.4873ZM134.299 59.3287L126.122 51.0332L125.613 51.5069L133.79 59.8024L134.299 59.3287ZM125.515 51.2703V59.7161H126.22V51.2703H125.515ZM125.867 59.3735H123.629V60.0586H125.867V59.3735ZM123.982 59.7161V48.6527H123.276V59.7161H123.982ZM123.982 48.6527C123.982 48.4969 124.024 48.3643 124.109 48.2448L123.528 47.8567C123.36 48.0941 123.276 48.3626 123.276 48.6527H123.982ZM124.108 48.2465C124.205 48.1105 124.324 48.015 124.464 47.9526L124.171 47.3296C123.91 47.4454 123.696 47.6231 123.529 47.855L124.108 48.2465ZM124.45 47.9585C124.598 47.9002 124.746 47.8869 124.901 47.918L125.043 47.247C124.751 47.1888 124.462 47.2145 124.185 47.3234L124.45 47.9585ZM124.91 47.9194C125.059 47.9458 125.185 48.0105 125.295 48.1215L125.802 47.6457C125.591 47.433 125.332 47.2974 125.034 47.2453L124.91 47.9194ZM125.294 48.1205L133.471 56.4073L133.98 55.9333L125.803 47.6464L125.294 48.1205ZM134.078 56.1703V47.7245H133.373V56.1703H134.078ZM133.726 48.067H135.963V47.382H133.726V48.067ZM135.611 47.7245V58.7878H136.316V47.7245H135.611ZM150.683 59.7161V60.0586H151.035V59.7161H150.683ZM148.445 59.7161H148.092V60.0586H148.445V59.7161ZM148.445 56.7725H148.797V56.4299H148.445V56.7725ZM140.577 56.7725V56.4299H140.225V56.7725H140.577ZM140.577 59.7161V60.0586H140.93V59.7161H140.577ZM138.339 59.7161H137.987V60.0586H138.339V59.7161ZM140.577 54.5985H140.225V54.941H140.577V54.5985ZM148.445 54.5985V54.941H148.797V54.5985H148.445ZM148.445 49.8988H148.797V49.5563H148.445V49.8988ZM144.072 49.9324L144.1 50.2735H144.104L144.108 50.2728L144.072 49.9324ZM143.306 50.0745L143.213 49.744L143.211 49.7447L143.306 50.0745ZM140.836 52.1735L140.508 52.0454L140.508 52.0474L140.836 52.1735ZM150.683 59.3735H148.445V60.0586H150.683V59.3735ZM148.797 59.7161V56.7725H148.092V59.7161H148.797ZM148.445 56.4299H140.577V57.115H148.445V56.4299ZM140.225 56.7725V59.7161H140.93V56.7725H140.225ZM140.577 59.3735H138.339V60.0586H140.577V59.3735ZM138.692 59.7161V53.7203H137.987V59.7161H138.692ZM138.692 53.7203C138.692 52.8849 138.84 52.1241 139.131 51.4333L138.478 51.174C138.149 51.9549 137.987 52.8051 137.987 53.7203H138.692ZM139.131 51.4333C139.424 50.7376 139.828 50.1444 140.343 49.6488L139.847 49.1621C139.261 49.7258 138.805 50.3979 138.478 51.174L139.131 51.4333ZM140.343 49.6488C140.86 49.1525 141.471 48.7647 142.181 48.4852L141.917 47.8502C141.124 48.1619 140.433 48.599 139.847 49.1621L140.343 49.6488ZM142.181 48.4852C142.887 48.2078 143.662 48.067 144.511 48.067V47.382C143.581 47.382 142.715 47.5368 141.917 47.8502L142.181 48.4852ZM144.511 48.067H149.555V47.382H144.511V48.067ZM149.555 48.067C149.665 48.067 149.765 48.0866 149.858 48.1242L150.13 47.4919C149.947 47.4183 149.755 47.382 149.555 47.382V48.067ZM149.858 48.1242C149.954 48.1633 150.036 48.2164 150.106 48.2845L150.605 47.8002C150.468 47.6677 150.309 47.5646 150.13 47.4919L149.858 48.1242ZM150.106 48.2845C150.176 48.3527 150.231 48.4318 150.271 48.5253L150.922 48.2619C150.847 48.0876 150.741 47.9328 150.605 47.8002L150.106 48.2845ZM150.271 48.5253C150.31 48.6157 150.33 48.713 150.33 48.8199H151.035C151.035 48.626 150.998 48.439 150.922 48.2619L150.271 48.5253ZM150.33 48.8199V59.7161H151.035V48.8199H150.33ZM140.577 54.941H148.445V54.256H140.577V54.941ZM148.797 54.5985V49.8988H148.092V54.5985H148.797ZM148.445 49.5563H144.511V50.2413H148.445V49.5563ZM144.511 49.5563C144.421 49.5563 144.256 49.5697 144.036 49.5916L144.108 50.2728C144.336 50.2502 144.463 50.2413 144.511 50.2413V49.5563ZM144.044 49.5909C143.797 49.6097 143.519 49.6625 143.213 49.744L143.399 50.4047C143.678 50.3304 143.911 50.2883 144.1 50.2735L144.044 49.5909ZM143.211 49.7447C142.896 49.83 142.57 49.9594 142.231 50.1297L142.556 50.738C142.86 50.5849 143.142 50.4749 143.401 50.4044L143.211 49.7447ZM142.231 50.1297C141.87 50.3115 141.542 50.5602 141.248 50.8709L141.766 51.335C142.011 51.0771 142.274 50.8798 142.556 50.738L142.231 50.1297ZM141.248 50.8709C140.944 51.1908 140.699 51.585 140.508 52.0454L141.162 52.3012C141.328 51.9029 141.53 51.5837 141.766 51.335L141.248 50.8709ZM140.508 52.0474C140.315 52.5222 140.225 53.0832 140.225 53.7203H140.93C140.93 53.1421 141.012 52.6718 141.163 52.2992L140.508 52.0474ZM140.225 53.7203V54.5985H140.93V53.7203H140.225ZM164.627 59.7161V60.0586H164.979V59.7161H164.627ZM153.609 59.4068L153.353 59.6417L153.36 59.6489L153.367 59.6558L153.609 59.4068ZM153.291 47.7245V47.382H152.938V47.7245H153.291ZM155.529 47.7245H155.881V47.382H155.529V47.7245ZM155.529 57.5417H155.176V57.8843H155.529V57.5417ZM164.627 57.5417H164.979V57.1992H164.627V57.5417ZM164.627 59.3735H154.418V60.0586H164.627V59.3735ZM154.418 59.3735C154.3 59.3735 154.198 59.3533 154.106 59.3163L153.835 59.9486C154.019 60.023 154.215 60.0586 154.418 60.0586V59.3735ZM154.106 59.3163C154.006 59.2756 153.922 59.2225 153.851 59.1577L153.367 59.6558C153.503 59.7804 153.66 59.8777 153.835 59.9486L154.106 59.3163ZM153.865 59.1715C153.799 59.1026 153.744 59.0211 153.702 58.9238L153.051 59.1872C153.124 59.3574 153.224 59.5099 153.353 59.6417L153.865 59.1715ZM153.702 58.9238C153.664 58.8348 153.643 58.7351 153.643 58.6207H152.938C152.938 58.8183 152.975 59.0084 153.051 59.1872L153.702 58.9238ZM153.643 58.6207V47.7245H152.938V58.6207H153.643ZM153.291 48.067H155.529V47.382H153.291V48.067ZM155.176 47.7245V57.5417H155.881V47.7245H155.176ZM155.529 57.8843H164.627V57.1992H155.529V57.8843ZM164.274 57.5417V59.7161H164.979V57.5417H164.274Z" fill="white" fill-opacity="0.6"/>
</g>
<g filter="url(#filter1_i_1471_2520)">
<path d="M2.84733 59.7153H0.609375V47.7238H2.84733V59.7153ZM17.7986 58.7871C17.7986 58.9433 17.767 59.0882 17.7039 59.2221C17.6465 59.3557 17.5662 59.4728 17.4629 59.5732C17.3654 59.6681 17.2477 59.7431 17.11 59.7989C16.9723 59.8547 16.8259 59.8825 16.671 59.8825C16.5333 59.8825 16.3927 59.8575 16.2492 59.8075C16.1115 59.7571 15.9881 59.6763 15.8791 59.565L7.70196 51.2695V59.7153H5.46402V48.652C5.46402 48.429 5.52713 48.2283 5.65339 48.0499C5.78535 47.8659 5.95176 47.7296 6.15262 47.6402C6.36493 47.5566 6.58299 47.5371 6.8068 47.5816C7.03057 47.6207 7.22282 47.721 7.38349 47.8827L15.5606 56.1696V47.7238H17.7986V58.7871ZM31.562 49.8981H26.6299V59.7153H24.392V49.8981H19.4512V47.7238H31.562V49.8981ZM43.3629 54.8149H36.2961V52.6242H43.3629V54.8149ZM44.3699 59.7153H36.2961C35.9862 59.7153 35.6478 59.6622 35.2805 59.5564C34.9132 59.4506 34.5718 59.2776 34.2562 59.0378C33.9463 58.7926 33.6852 58.4778 33.4729 58.0932C33.2663 57.7027 33.163 57.2263 33.163 56.6632V48.8192C33.163 48.6688 33.1917 48.5266 33.2491 48.3927C33.3065 48.2591 33.384 48.142 33.4815 48.0416C33.5848 47.9413 33.7053 47.8632 33.843 47.8074C33.9807 47.7519 34.1299 47.7238 34.2906 47.7238H44.3699V49.8981H35.401V56.6632C35.401 56.9475 35.4784 57.1649 35.6333 57.3153C35.7884 57.466 36.0151 57.541 36.3134 57.541H44.3699V59.7153ZM58.8736 51.7545C58.8736 52.2505 58.8105 52.6937 58.6843 53.0842C58.5581 53.4743 58.386 53.8199 58.1678 54.121C57.9556 54.4166 57.7088 54.6701 57.4278 54.8821C57.1464 55.0937 56.851 55.2695 56.5411 55.4089C56.2368 55.5424 55.9269 55.6401 55.6114 55.7014C55.3015 55.7627 55.0088 55.7935 54.7335 55.7935L59.4074 59.7153H55.947L51.2819 55.7935H49.6724V53.6192H54.7335C55.0148 53.5969 55.2701 53.5411 55.4996 53.4521C55.7348 53.3572 55.9357 53.2318 56.1021 53.0756C56.2742 52.9198 56.406 52.7328 56.4981 52.5153C56.5897 52.2923 56.6356 52.0388 56.6356 51.7545V50.3831C56.6356 50.2605 56.6186 50.1683 56.5841 50.107C56.5555 50.0402 56.5153 49.993 56.4635 49.9649C56.4177 49.9317 56.3662 49.9121 56.3087 49.9063C56.2569 49.9008 56.2083 49.8981 56.1624 49.8981H48.7769V59.7153H46.5392V48.8192C46.5392 48.6688 46.5677 48.5266 46.6252 48.3927C46.6827 48.2591 46.7599 48.142 46.8576 48.0416C46.9609 47.9413 47.0814 47.8632 47.2193 47.8074C47.3568 47.7519 47.5059 47.7238 47.6667 47.7238H56.1624C56.6617 47.7238 57.0833 47.8132 57.4278 47.9913C57.7719 48.1643 58.0504 48.3845 58.2626 48.652C58.4805 48.914 58.6357 49.1983 58.7273 49.5049C58.825 49.8118 58.8736 50.0988 58.8736 50.3663V51.7545ZM73.455 58.7871C73.455 58.9433 73.4233 59.0882 73.3601 59.2221C73.3027 59.3557 73.2223 59.4728 73.119 59.5732C73.0217 59.6681 72.9039 59.7431 72.7661 59.7989C72.6286 59.8547 72.4823 59.8825 72.3271 59.8825C72.1896 59.8825 72.049 59.8575 71.9055 59.8075C71.7676 59.7571 71.6442 59.6763 71.5353 59.565L63.3583 51.2695V59.7153H61.1202V48.652C61.1202 48.429 61.1833 48.2283 61.3095 48.0499C61.4417 47.8659 61.6081 47.7296 61.8087 47.6402C62.0213 47.5566 62.2392 47.5371 62.4631 47.5816C62.687 47.6207 62.8791 47.721 63.0399 47.8827L71.2169 56.1696V47.7238H73.455V58.7871ZM88.1738 59.7153H85.9358V56.7717H78.0686V59.7153H75.8306V53.7196C75.8306 52.8444 75.9853 52.0388 76.2952 51.3028C76.6051 50.567 77.0356 49.9344 77.5863 49.4045C78.1374 48.875 78.7886 48.4626 79.5402 48.167C80.2919 47.8718 81.1127 47.7238 82.0022 47.7238H87.046C87.2011 47.7238 87.3474 47.7519 87.4849 47.8074C87.6228 47.8632 87.7434 47.9413 87.8466 48.0416C87.95 48.142 88.0303 48.2591 88.0875 48.3927C88.1449 48.5266 88.1738 48.6688 88.1738 48.8192V59.7153ZM78.0686 54.5978H85.9358V49.8981H82.0022C81.9331 49.8981 81.7868 49.9091 81.5633 49.9317C81.345 49.9481 81.0898 49.9957 80.7971 50.0738C80.5101 50.1516 80.2059 50.2714 79.8847 50.4331C79.5632 50.5948 79.2677 50.8178 78.998 51.1024C78.7283 51.3867 78.5044 51.7432 78.3267 52.1728C78.1547 52.5961 78.0686 53.1119 78.0686 53.7196V54.5978ZM101.937 49.8981H97.0049V59.7153H94.7671V49.8981H89.8263V47.7238H101.937V49.8981ZM105.845 59.7153H103.607V47.7238H105.845V59.7153ZM121.416 54.8653C121.416 55.5955 121.287 56.2672 121.029 56.8807C120.771 57.4938 120.412 58.0233 119.953 58.4693C119.494 58.9152 118.948 59.2639 118.317 59.5146C117.692 59.7599 117.009 59.8825 116.269 59.8825H113.239C112.499 59.8825 111.813 59.7599 111.181 59.5146C110.55 59.2639 110.005 58.9152 109.546 58.4693C109.087 58.0233 108.726 57.4938 108.462 56.8807C108.203 56.2672 108.074 55.5955 108.074 54.8653V52.5738C108.074 51.8494 108.203 51.1801 108.462 50.567C108.726 49.9481 109.087 49.4186 109.546 48.9781C110.005 48.5321 110.55 48.1838 111.181 47.9331C111.813 47.682 112.499 47.5566 113.239 47.5566H116.269C117.009 47.5566 117.692 47.682 118.317 47.9331C118.948 48.1838 119.494 48.5321 119.953 48.9781C120.412 49.4186 120.771 49.9481 121.029 50.567C121.287 51.1801 121.416 51.8494 121.416 52.5738V54.8653ZM119.178 52.5738C119.178 52.1447 119.106 51.7573 118.963 51.4117C118.825 51.0603 118.627 50.7623 118.369 50.517C118.116 50.266 117.809 50.0738 117.448 49.9399C117.092 49.8005 116.699 49.7309 116.269 49.7309H113.239C112.803 49.7309 112.404 49.8005 112.042 49.9399C111.687 50.0738 111.38 50.266 111.122 50.517C110.863 50.7623 110.662 51.0603 110.519 51.4117C110.381 51.7573 110.312 52.1447 110.312 52.5738V54.8653C110.312 55.2945 110.381 55.6846 110.519 56.036C110.662 56.3816 110.863 56.6799 111.122 56.9307C111.38 57.1759 111.687 57.3684 112.042 57.5078C112.404 57.6414 112.803 57.7085 113.239 57.7085H116.251C116.687 57.7085 117.083 57.6414 117.439 57.5078C117.801 57.3684 118.111 57.1759 118.369 56.9307C118.627 56.6799 118.825 56.3816 118.963 56.036C119.106 55.6846 119.178 55.2945 119.178 54.8653V52.5738ZM135.962 58.7871C135.962 58.9433 135.931 59.0882 135.868 59.2221C135.811 59.3557 135.73 59.4728 135.627 59.5732C135.53 59.6681 135.412 59.7431 135.274 59.7989C135.136 59.8547 134.99 59.8825 134.835 59.8825C134.697 59.8825 134.557 59.8575 134.413 59.8075C134.275 59.7571 134.152 59.6763 134.043 59.565L125.866 51.2695V59.7153H123.628V48.652C123.628 48.429 123.691 48.2283 123.817 48.0499C123.95 47.8659 124.116 47.7296 124.317 47.6402C124.529 47.5566 124.747 47.5371 124.971 47.5816C125.194 47.6207 125.387 47.721 125.547 47.8827L133.725 56.1696V47.7238H135.962V58.7871ZM150.682 59.7153H148.444V56.7717H140.576V59.7153H138.338V53.7196C138.338 52.8444 138.493 52.0388 138.803 51.3028C139.113 50.567 139.543 49.9344 140.094 49.4045C140.645 48.875 141.296 48.4626 142.048 48.167C142.8 47.8718 143.621 47.7238 144.51 47.7238H149.554C149.709 47.7238 149.855 47.7519 149.993 47.8074C150.131 47.8632 150.251 47.9413 150.355 48.0416C150.458 48.142 150.538 48.2591 150.595 48.3927C150.653 48.5266 150.682 48.6688 150.682 48.8192V59.7153ZM140.576 54.5978H148.444V49.8981H144.51C144.441 49.8981 144.295 49.9091 144.071 49.9317C143.853 49.9481 143.598 49.9957 143.305 50.0738C143.018 50.1516 142.714 50.2714 142.393 50.4331C142.071 50.5948 141.776 50.8178 141.506 51.1024C141.236 51.3867 141.012 51.7432 140.835 52.1728C140.663 52.5961 140.576 53.1119 140.576 53.7196V54.5978ZM164.626 59.7153H154.417C154.257 59.7153 154.107 59.6876 153.97 59.6318C153.832 59.5759 153.711 59.5006 153.608 59.406C153.511 59.3057 153.433 59.1885 153.376 59.0546C153.318 58.921 153.29 58.7758 153.29 58.62V47.7238H155.528V57.541H164.626V59.7153Z" fill="#0A30B4"/>
</g>
<defs>
<filter id="filter0_i_1471_2520" x="4.98438" y="1.57617" width="154.137" height="41.0703" filterUnits="userSpaceOnUse" color-interpolation-filters="sRGB">
<feFlood flood-opacity="0" result="BackgroundImageFix"/>
<feBlend mode="normal" in="SourceGraphic" in2="BackgroundImageFix" result="shape"/>
<feColorMatrix in="SourceAlpha" type="matrix" values="0 0 0 0 0 0 0 0 0 0 0 0 0 0 0 0 0 0 127 0" result="hardAlpha"/>
<feOffset dy="4"/>
<feGaussianBlur stdDeviation="2"/>
<feComposite in2="hardAlpha" operator="arithmetic" k2="-1" k3="1"/>
<feColorMatrix type="matrix" values="0 0 0 0 0 0 0 0 0 0 0 0 0 0 0 0 0 0 0.25 0"/>
<feBlend mode="normal" in2="shape" result="effect1_innerShadow_1471_2520"/>
</filter>
<filter id="filter1_i_1471_2520" x="0.609375" y="47.5566" width="164.016" height="16.3262" filterUnits="userSpaceOnUse" color-interpolation-filters="sRGB">
<feFlood flood-opacity="0" result="BackgroundImageFix"/>
<feBlend mode="normal" in="SourceGraphic" in2="BackgroundImageFix" result="shape"/>
<feColorMatrix in="SourceAlpha" type="matrix" values="0 0 0 0 0 0 0 0 0 0 0 0 0 0 0 0 0 0 127 0" result="hardAlpha"/>
<feOffset dy="4"/>
<feGaussianBlur stdDeviation="2"/>
<feComposite in2="hardAlpha" operator="arithmetic" k2="-1" k3="1"/>
<feColorMatrix type="matrix" values="0 0 0 0 0 0 0 0 0 0 0 0 0 0 0 0 0 0 0.25 0"/>
<feBlend mode="normal" in2="shape" result="effect1_innerShadow_1471_2520"/>
</filter>
</defs>
</svg>
